<?xml version="1.0" encoding="utf-8"?>
<svg version="1.1" id="first-animate-block-mobile" xmlns="http://www.w3.org/2000/svg" xmlns:xlink="http://www.w3.org/1999/xlink"
	 x="0px" y="0px" viewBox="0 0 416.2 609.8" style="enable-background:new 0 0 416.2 609.8;" xml:space="preserve">
<style type="text/css">
	.st0{fill:#D2D1CE;}
	.st1{fill:url(#_chandelier-light-radius_1_);}
	.st2{fill:#1D1D20;}
	.st3{fill:#FFE252;}
	.st4{fill:#8A8A8C;}
	.st5{fill:#FFFFFF;}
	.st6{fill:none;}
	.st7{fill:#8A898B;}
	.st8{fill:#89888A;}
	.st9{fill:#7F9394;}
	.st10{fill:#B6B6B4;}
	.st11{fill:url(#_lamp-light-radius_1_);}
	.st13{display:inline;fill:#D2D1CE;}
	.st14{display:inline;fill:#1D1D20;}
	.st15{fill:#FEFEFD;}
</style>
<title>introduction-first-interactive-image-mobile</title>
<path id="_floor" class="st0" d="M147.5,468.8c-24.2,6.2-48.1,13.8-71.5,22.7v118.3h340.2V443C329.1,442.1,229.8,447.4,147.5,468.8z
	"/>
<g id="_chandelier">
	<!-- TODO: Chybí transparentní výplň (klidně tam dej třeba červenoou, barvu už doladím jednoduše) jako je u desktopové verze -->
	<radialGradient id="_chandelier-light-radius_1_" cx="620.6331" cy="3372.6909" r="207.9268" fx="433.1325" fy="3282.8225" gradientTransform="matrix(0.4536 0.8913 -0.8913 0.4536 2932.6604 -1745.2229)" gradientUnits="userSpaceOnUse">
		<stop  offset="0" style="stop-color:#FFE252"/>
		<stop  offset="1" style="stop-color:#FFE252;stop-opacity:0"/>
	</radialGradient>
	<circle id="_chandelier-light-radius" class="st1" cx="208.1" cy="337.8" r="207.9"/>
	<path class="st2" d="M235.3,119.7l-58.7,0.2c-0.3,0-0.6-0.1-0.8-0.4c-0.2-0.2-1.6-2-1.2-5.9c0.8-6.2,6.5-17.2,30.2-34.5l-0.1-37.3
		c0-0.6,0.5-1,1-1c0.6,0,1,0.5,1,1l0.1,37.9c0,0.3-0.2,0.6-0.4,0.8c-24.3,17.7-29.1,28.4-29.7,33.1c-0.3,1.4-0.1,2.8,0.5,4.1
		l58.1-0.2c0.6,0,1,0.5,1,1C236.3,119.1,235.9,119.6,235.3,119.7L235.3,119.7z"/>
	<path class="st2" d="M235.2,119.7l-58.7,0.2c-0.6,0-1-0.5-1-1c0-0.6,0.5-1,1-1l58.1-0.2c0.6-1.3,0.7-2.7,0.5-4.1
		c-0.7-4.8-5.4-15.5-29.9-32.9c-0.3-0.2-0.4-0.5-0.4-0.8L204.5,1c0-0.6,0.5-1,1-1c0.6,0,1,0.5,1,1l0.3,78.2
		c23.8,17,29.6,28,30.4,34.3c0.5,3.8-1,5.7-1.2,5.9C235.8,119.5,235.5,119.7,235.2,119.7z"/>
	<path id="_chandelier-light" class="st3" d="M205,109.7c-4.9,0-8.9,4-8.9,8.9l0,0l17.8-0.1C213.9,113.7,209.9,109.7,205,109.7
		L205,109.7z"/>
	<!-- TODO: Tohle by měl být okraj cesty výše (id="_chandelier-light"), nikoliv samostatná cesta -->
	<path class="st4" d="M214.9,119.6l-19.8,0.1v-1c0-5.5,4.4-9.9,9.9-9.9s9.9,4.4,9.9,9.9L214.9,119.6z M197.2,117.6h15.6
		c-0.6-4.3-4.5-7.3-8.8-6.8C200.5,111.2,197.7,114,197.2,117.6z"/>
</g>
<g id="_bookshelf">
	<g id="_shelf">
		<polygon class="st5" points="203.4,338.3 208.1,347.9 322.5,347.9 317.8,338.3 		"/>
		<path class="st4" d="M322.5,348.9H208.1c-0.4,0-0.8-0.2-0.9-0.6l-4.8-9.5c-0.3-0.5-0.1-1.1,0.4-1.4c0.2-0.1,0.4-0.1,0.6-0.1h114.4
			c0.4,0,0.8,0.2,0.9,0.6l4.8,9.5c0.3,0.5,0.1,1.1-0.4,1.4C322.9,348.9,322.7,348.9,322.5,348.9z M208.8,346.8h112.1l-3.7-7.5H205
			L208.8,346.8z"/>
	</g>
	<!-- TODO: Chybí změněné knihy -->
	<g id="_book-5">
		<polygon class="st3" points="303.5,300.2 308.2,309.7 313,309.7 313,347.9 308.2,347.9 303.5,338.3 		"/>
		<path class="st2" d="M313,348.9h-4.8c-0.4,0-0.8-0.2-0.9-0.6l-4.8-9.5c-0.1-0.1-0.1-0.3-0.1-0.5v-38.1c-0.1-0.6,0.2-1.1,0.8-1.2
			c0.6-0.1,1.1,0.2,1.2,0.8l4.5,9h4.1c0.6,0,1,0.4,1,1v38.1C314,348.4,313.6,348.9,313,348.9L313,348.9z M308.9,346.8h3.1v-36.1
			h-3.7c-0.4,0-0.8-0.2-0.9-0.6l-2.8-5.6V338L308.9,346.8z"/>
		<path class="st2" d="M308.2,348.9c-0.6,0-1-0.4-1-1v-38.2c0-0.6,0.5-1,1-1c0.6,0,1,0.5,1,1v38.1c0,0.6-0.4,1-0.9,1.1
			C308.3,348.9,308.3,348.9,308.2,348.9z"/>
		<line class="st6" x1="308.2" y1="300.2" x2="313" y2="309.7"/>
		<path class="st2" d="M313,310.8c-0.4,0-0.8-0.2-0.9-0.6l-4.8-9.5c-0.3-0.5-0.1-1.1,0.5-1.4c0.5-0.3,1.1-0.1,1.4,0.5l4.8,9.5
			c0.3,0.5,0.1,1.1-0.4,1.4c0,0,0,0-0.1,0C313.3,310.7,313.1,310.8,313,310.8z"/>
	</g>
	<g id="_book-4">
		<polygon class="st7" points="290.1,310.1 298.6,310.1 302.5,318.9 294.5,318.9 		"/>
		<polygon class="st0" points="289.2,309.7 293.9,319.3 303.5,319.3 303.5,347.9 293.9,347.9 289.2,338.3 		"/>
		<path class="st2" d="M303.5,348.9H294c-0.4,0-0.8-0.2-0.9-0.6l-4.8-9.5c-0.1-0.1-0.1-0.3-0.1-0.5v-28.6c-0.1-0.6,0.2-1.1,0.8-1.2
			c0.6-0.1,1.1,0.2,1.2,0.8l4.5,9h8.9c0.6,0,1,0.4,1,1v28.6c0,0.6-0.4,1-0.9,1.1C303.5,348.9,303.5,348.9,303.5,348.9z M294.6,346.8
			h7.9v-26.5H294c-0.4,0-0.8-0.2-0.9-0.6l-2.8-5.6v24L294.6,346.8z"/>
		<line class="st6" x1="293.9" y1="319.3" x2="293.9" y2="347.9"/>
		<path class="st2" d="M293.9,348.9c-0.6,0-1-0.4-1-1v-28.6c0-0.6,0.5-1,1-1c0.6,0,1,0.5,1,1v28.6
			C295,348.4,294.5,348.9,293.9,348.9C294,348.9,293.9,348.9,293.9,348.9z"/>
		<line class="st6" x1="298.7" y1="309.7" x2="303.5" y2="319.3"/>
		<path class="st2" d="M303.5,320.3c-0.4,0-0.8-0.2-0.9-0.6l-4.8-9.5c-0.3-0.5-0.1-1.1,0.5-1.4c0.5-0.3,1.1-0.1,1.4,0.5l4.8,9.5
			c0.3,0.5,0.1,1.1-0.4,1.4c0,0,0,0-0.1,0C303.8,320.3,303.6,320.3,303.5,320.3z"/>
	</g>
	<g id="_book-3">
		<polygon class="st8" points="251,300.2 255.8,309.7 260.6,309.7 260.6,347.9 255.8,347.9 251,338.3 		"/>
		<path class="st2" d="M260.6,348.9h-4.8c-0.4,0-0.8-0.2-0.9-0.6l-4.8-9.5c-0.1-0.1-0.1-0.3-0.1-0.5v-38.1c-0.1-0.6,0.2-1.1,0.8-1.2
			s1.1,0.2,1.2,0.8l4.5,9h4.1c0.6,0,1,0.4,1,1v38.1C261.6,348.4,261.2,348.9,260.6,348.9L260.6,348.9z M256.4,346.8h3.1v-36.1h-3.7
			c-0.4,0-0.8-0.2-0.9-0.6l-2.8-5.6V338L256.4,346.8z"/>
		<path class="st2" d="M255.8,348.9c-0.6,0-1-0.4-1-1v-38.2c0-0.6,0.5-1,1-1c0.6,0,1,0.5,1,1v38.1
			C256.8,348.4,256.4,348.8,255.8,348.9L255.8,348.9z"/>
		<line class="st6" x1="255.8" y1="300.2" x2="260.6" y2="309.7"/>
		<path class="st2" d="M260.6,310.8c-0.4,0-0.8-0.2-0.9-0.6l-4.8-9.5c-0.3-0.5-0.1-1.1,0.5-1.4c0.5-0.3,1.1-0.1,1.4,0.5l4.8,9.5
			c0.3,0.5,0.1,1.1-0.4,1.4c0,0,0,0-0.1,0C260.9,310.7,260.7,310.8,260.6,310.8z"/>
	</g>
	<g id="_book-2">
		<polygon class="st0" points="241.5,300.2 246.3,309.7 251,309.7 251,347.9 246.3,347.9 241.5,338.3 		"/>
		<path class="st2" d="M251,348.9h-4.8c-0.4,0-0.8-0.2-0.9-0.6l-4.7-9.5c-0.1-0.1-0.1-0.3-0.1-0.5v-38.1c-0.1-0.6,0.2-1.1,0.8-1.2
			s1.1,0.2,1.2,0.8l4.5,9h4.1c0.6,0,1,0.4,1,1v38.1c0,0.6-0.4,1-1,1C251.1,348.9,251.1,348.9,251,348.9z M246.9,346.8h3.1v-36.1
			h-3.7c-0.4,0-0.8-0.2-0.9-0.6l-2.8-5.6V338L246.9,346.8z"/>
		<path class="st2" d="M246.3,348.9c-0.6,0-1-0.4-1-1v-38.2c0-0.6,0.5-1,1-1c0.6,0,1,0.5,1,1v38.1c0,0.6-0.4,1-0.9,1.1
			C246.4,348.9,246.3,348.9,246.3,348.9z"/>
		<line class="st6" x1="246.3" y1="300.2" x2="251" y2="309.7"/>
		<path class="st2" d="M251,310.8c-0.4,0-0.8-0.2-0.9-0.6l-4.8-9.5c-0.3-0.5-0.1-1.1,0.5-1.4c0.5-0.3,1.1-0.1,1.4,0.5l4.8,9.5
			c0.3,0.5,0.1,1.1-0.4,1.4c0,0,0,0-0.1,0C251.3,310.7,251.2,310.8,251,310.8z"/>
	</g>
	<g id="_book-1">
		<polygon class="st9" points="227.2,309.7 232,317.4 236.7,317.4 236.7,347.9 232,347.9 227.2,340.2 		"/>
		<path class="st2" d="M236.7,348.9H232c-0.4,0-0.7-0.2-0.9-0.5l-4.8-7.6c-0.1-0.2-0.2-0.4-0.2-0.5v-30.5c0-0.5,0.3-0.9,0.8-1
			c0.4-0.1,0.9,0,1.2,0.5l4.5,7.1h4.2c0.6,0,1,0.4,1,1v30.5c0.1,0.5-0.3,1-0.9,1.1C236.8,348.9,236.8,348.9,236.7,348.9z
			 M232.5,346.8h3.2v-28.4H232c-0.4,0-0.7-0.2-0.9-0.5l-2.8-4.6v26.6L232.5,346.8z"/>
		<path class="st2" d="M232,348.9c-0.6,0-1-0.4-1-1v-30.5c0-0.6,0.5-1,1-1c0.6,0,1,0.5,1,1v30.5C233,348.4,232.6,348.9,232,348.9
			L232,348.9z"/>
		<line class="st6" x1="232" y1="309.7" x2="236.7" y2="317.4"/>
		<path class="st2" d="M236.7,318.4c-0.4,0-0.7-0.2-0.9-0.5l-4.8-7.6c-0.3-0.5-0.2-1.1,0.3-1.4s1.1-0.2,1.4,0.3l4.8,7.6
			c0.3,0.5,0.2,1.1-0.3,1.4c0,0,0,0-0.1,0C237.1,318.3,236.9,318.4,236.7,318.4z"/>
	</g>
</g>
<g id="_flower">
	<path class="st9" d="M164,465.9c0-4.1-0.5-8.2-1.7-12.2c-2-7.1-7.9-7.7-10-4.3c-2.1,3.3-0.5,5.4-0.2,7.7c0.2,2.2-2.1,0.6-3.4,1.5
		c-1.3,0.8-5,3.8-0.2,8.9S154.4,466.4,164,465.9z"/>
	<path class="st7" d="M161.4,493.6c-11.1,0-22.9-2.7-22.9-7.7s11.8-7.7,22.9-7.7c11.1,0,22.9,2.7,22.9,7.7S172.4,493.6,161.4,493.6z
		 M161.4,480.2c-12.9,0-20.8,3.3-20.8,5.7c0,2.4,7.9,5.7,20.8,5.7c12.9,0,20.8-3.3,20.8-5.7S174.2,480.2,161.4,480.2z"/>
	<ellipse class="st0" cx="161.4" cy="502.2" rx="13.8" ry="6.7"/>
	<path class="st7" d="M161.4,510c-8.3,0-14.8-3.4-14.8-7.7s6.5-7.7,14.8-7.7s14.8,3.4,14.8,7.7S169.7,510,161.4,510z M161.4,496.6
		c-7.5,0-12.8,3-12.8,5.7s5.2,5.7,12.8,5.7c7.5,0,12.8-3,12.8-5.7C174.1,499.6,168.9,496.6,161.4,496.6z"/>
	<path class="st7" d="M147.6,504.3c-0.4,0-0.8-0.2-0.9-0.6l-8-17.2c-0.2-0.5-0.1-1.1,0.4-1.3c0,0,0,0,0.1,0c0.5-0.3,1.1-0.1,1.3,0.4
		c0,0,0,0,0,0.1l8,17.2c0.3,0.5,0.1,1.1-0.4,1.3c0,0,0,0-0.1,0C147.9,504.2,147.7,504.3,147.6,504.3z"/>
	<path class="st7" d="M174.8,504.9c-0.2,0-0.3,0-0.5-0.1c-0.5-0.2-0.7-0.8-0.5-1.3c0,0,0,0,0-0.1l8.4-17.5c0.2-0.5,0.9-0.7,1.4-0.5
		s0.7,0.9,0.5,1.4l-8.4,17.4C175.6,504.6,175.2,504.9,174.8,504.9z"/>
	<polygon class="st8" points="139.5,488.4 148,505.8 152.6,507.7 162.6,508.5 171.1,507.5 175.2,505.3 182.6,489.3 174.6,490.9
		161.6,491.6 152,491.3 143.8,490.2 	"/>
	<path class="st2" d="M161.8,486.9l-1.8-1c0-0.1,4.6-8.6,0.9-15.6c-1.4-2.5-3.1-4.9-5-7.1c-3.9-4.8-7.9-9.8-8-17.2
		c-0.3-11,4.8-16.1,5-16.3l1.5,1.5c0,0-4.7,4.8-4.4,14.8c0.2,6.7,3.9,11.4,7.6,15.9c2,2.3,3.7,4.8,5.2,7.4
		C166.9,477.3,162,486.5,161.8,486.9z"/>
	<path class="st2" d="M159.7,468.2c-2.8-16.2,2-27.3,2.2-27.7l1.9,0.8c0,0.1-4.7,11-2,26.6L159.7,468.2z"/>
	<path class="st0" d="M167.6,453.8c-2.1,0.1-3.7,1.8-3.7,3.9c0,3.8,8.3,4.2,8.3,4.2c1.7-0.1,3.3,0.2,4.8,0.9c0,0-1.5-1.6-0.7-5.8
		c0.8-4.2-0.8-6.9-2.5-7.2C171.1,449.4,168.4,451.1,167.6,453.8z"/>
	<path class="st9" d="M177,463.8c-0.1,0-0.3,0-0.4-0.1c-1.4-0.6-2.8-0.9-4.3-0.8h-0.1c-1,0-9.3-0.6-9.3-5.2c-0.1-2.4,1.6-4.5,4-4.8
		c1.2-2.8,4.1-4.5,7.2-4.1c1,0.2,1.8,0.8,2.4,1.6c1.2,2,1.6,4.5,1,6.8c-0.7,3.5,0.4,4.9,0.4,4.9c0.3,0.4,0.3,0.9,0,1.3
		C177.6,463.7,177.3,463.8,177,463.8z M172.6,460.8c0.9,0,1.8,0.1,2.6,0.3c-0.2-1.4-0.2-2.9,0.1-4.3c0.5-1.8,0.2-3.6-0.6-5.2
		c-0.2-0.4-0.6-0.7-1-0.8c-2.3-0.3-4.5,1.1-5.1,3.3c-0.1,0.4-0.5,0.7-0.9,0.7c-1.5,0-2.7,1.3-2.7,2.8v0.1c0,2.1,4.8,3,7.2,3.1H172.6
		z"/>
	<path class="st0" d="M165.1,421.1c-3.9-1.2-8-1.8-12.1-1.8c-7.4-0.1-9.6,5.4-7,8.3c2.6,3,5.1,2,7.3,2.4s0,2.2,0.4,3.7
		s2.2,5.9,8.5,2.7C168.5,433.2,162.8,430.5,165.1,421.1z"/>
	<path class="st9" d="M158.2,438.5c-0.8,0-1.5-0.2-2.3-0.5c-1.6-0.8-2.8-2.4-3.3-4.2c-0.2-0.8,0-1.7,0.3-2.4
		c0.1-0.2,0.1-0.3,0.2-0.5H153c-0.5-0.1-1.1-0.1-1.6-0.1c-2.4,0.2-4.7-0.8-6.3-2.6c-1.4-1.6-1.7-3.9-0.8-5.8
		c1.2-2.7,4.3-4.3,8.3-4.3h0.3c4.2,0,8.4,0.7,12.5,1.9c0.5,0.2,0.8,0.7,0.7,1.2c-0.7,2.8-0.7,5.7-0.1,8.6c0.5,2.9,0.9,5.3-3.4,7.4
		C161.2,438.1,159.7,438.5,158.2,438.5z M152.7,420.3c-3.1,0-5.5,1.1-6.4,3.1c-0.6,1.2-0.4,2.6,0.5,3.5c1.6,1.8,3.1,1.9,4.8,1.9
		c0.6,0,1.3,0.1,1.9,0.2c0.7,0.1,1.3,0.4,1.6,1c0.3,0.7,0.3,1.6-0.1,2.3c-0.2,0.4-0.3,0.8-0.3,1.2c0.3,1.2,1,2.2,2.1,2.8
		c1.2,0.5,2.9,0.3,4.9-0.7c2.9-1.5,2.8-2.4,2.3-5.2c-0.6-2.8-0.6-5.7-0.1-8.5c-3.6-1-7.2-1.5-10.9-1.5L152.7,420.3z"/>
	<path class="st0" d="M143.7,451.6c1.9,0.8,3.9,1.3,6,1.5c3.7,0.4,5-2.2,3.9-3.8c-1.1-1.6-2.4-1.2-3.5-1.5s0.1-1.1,0-1.9
		s-0.8-3-4.1-1.8C142.7,445.4,145.3,447,143.7,451.6z"/>
	<path class="st9" d="M150.4,454.2c-0.3,0-0.6,0-0.9,0c-2.2-0.2-4.3-0.7-6.3-1.6c-0.5-0.2-0.7-0.8-0.5-1.3c0.4-1.3,0.6-2.7,0.4-4
		c-0.1-1.5-0.2-3,2.4-4c1.2-0.6,2.6-0.6,3.8,0c0.9,0.6,1.5,1.5,1.7,2.6c0.1,0.4,0,0.8-0.2,1.2h0.2c1.3,0,2.6,0.7,3.3,1.8
		c0.7,1,0.8,2.4,0.2,3.5C153.6,453.6,152,454.3,150.4,454.2z M144.9,451c1.6,0.5,3.2,0.9,4.8,1.1c1.4,0.2,2.5-0.2,3-1
		c0.2-0.4,0.2-0.8,0-1.2c-0.4-0.6-1.2-1-1.9-1c-0.3,0-0.7-0.1-1-0.2c-0.5-0.1-0.9-0.4-1.1-0.9c-0.2-0.5-0.1-1.1,0.2-1.6
		c0-0.1,0.1-0.2,0.1-0.3c-0.1-0.4-0.3-0.8-0.7-1.1c-0.7-0.2-1.4-0.2-2,0.2c-1.2,0.5-1.2,0.6-1,2S145.3,449.7,144.9,451z"/>
	<path class="st0" d="M146.2,462.8c-1-1.8-3.3-2.5-5.1-1.5c-3.4,1.6,0,9.3,0,9.3c0.8,1.5,1.3,3.1,1.3,4.7c0,0,0.8-2.1,4.9-3.2
		c4.1-1.1,5.8-3.8,5.3-5.5C151.7,463.9,148.9,462.3,146.2,462.8z"/>
	<path class="st9" d="M142.4,476.3h-0.2c-0.5-0.1-0.9-0.5-0.8-1c-0.1-1.5-0.5-2.9-1.2-4.3l-0.1-0.1c-0.4-0.9-3.7-8.6,0.5-10.6
		c2.1-1.2,4.7-0.6,6.1,1.4c3.1-0.2,5.9,1.7,6.9,4.6c0.3,1,0.1,2-0.4,2.8c-1.3,2-3.3,3.4-5.6,3.9c-3.4,1-4.2,2.6-4.2,2.6
		C143.2,476,142.8,476.3,142.4,476.3z M142,470c0.5,0.9,0.9,1.9,1.1,2.8c1.2-0.9,2.5-1.5,3.9-1.8c1.8-0.4,3.3-1.4,4.4-2.9
		c0.2-0.4,0.3-0.8,0.2-1.3c-0.7-2.2-3-3.5-5.3-3.1c-0.4,0-0.8-0.2-1-0.5c-0.7-1.3-2.4-1.9-3.7-1.2c0,0-0.1,0-0.1,0.1
		C139.6,463.1,141,467.8,142,470z"/>
</g>
<g id="_table">
	<!-- TODO: Opravit nohy - sjednotit jako to je u klasické verze pro počítač -->
	<polyline class="st0" points="202.9,471.3 202.9,536.6 209.7,536.6 209.7,471.3 	"/>
	<path class="st4" d="M209.7,537.6h-6.8c-0.6,0-1-0.4-1-1v-65.3c0-0.6,0.5-1,1-1c0.6,0,1,0.5,1,1v64.2h4.8v-64.2c0-0.6,0.5-1,1-1
		c0.6,0,1,0.5,1,1v65.2C210.7,537.1,210.3,537.5,209.7,537.6C209.8,537.6,209.8,537.6,209.7,537.6z"/>
	<polyline class="st0" points="189.7,409.9 189.7,499.1 196.6,499.1 196.6,409.9 	"/>
	<path class="st4" d="M196.6,500.1h-6.8c-0.6,0-1-0.4-1-1v-89.2c0-0.6,0.5-1,1-1c0.6,0,1,0.5,1,1V498h4.8v-88.2c0-0.6,0.5-1,1-1
		c0.6,0,1,0.5,1,1V499c0,0.6-0.4,1-1,1C196.7,500.1,196.7,500.1,196.6,500.1z"/>
	<polyline class="st0" points="353.2,471.3 353.2,536.6 360.1,536.6 360.1,471.3 	"/>
	<path class="st4" d="M360.1,537.6h-6.9c-0.6,0-1-0.4-1-1v-65.3c0-0.6,0.5-1,1-1c0.6,0,1,0.5,1,1v64.2h4.8v-64.2c0-0.6,0.5-1,1-1
		c0.6,0,1,0.5,1,1v65.2C361.1,537.1,360.7,537.6,360.1,537.6L360.1,537.6z"/>
	<polyline class="st0" points="340.1,409.9 340.1,499.1 346.9,499.1 346.9,409.9 	"/>
	<path class="st4" d="M346.9,500.1h-6.8c-0.6,0-1-0.4-1-1v-89.2c0-0.6,0.5-1,1-1c0.6,0,1,0.5,1,1V498h4.8v-88.2c0-0.6,0.5-1,1-1
		c0.6,0,1,0.5,1,1V499c0,0.6-0.4,1-1,1C347,500.1,346.9,500.1,346.9,500.1z"/>
	<polygon id="_table-top" class="st5" points="347.5,409 189.7,409 202.9,471.3 360.6,471.3 	"/>
	<path class="st4" d="M360.6,472.4H202.9c-0.5,0-0.9-0.3-1-0.8l-13.2-62.3c-0.1-0.3,0-0.6,0.2-0.9c0.2-0.2,0.5-0.4,0.8-0.4h157.8
		c0.5,0,0.9,0.3,1,0.8l13.1,62.3c0.1,0.5-0.2,1.1-0.7,1.2C360.8,472.4,360.7,472.4,360.6,472.4z M203.7,470.3h155.7L346.6,410H191
		L203.7,470.3z"/>
	<ellipse class="st10" cx="298.7" cy="534.1" rx="107.4" ry="29.2"/>
</g>
<g id="_notebook">
	<!-- TODO: Je potřeba mít základ klávesnice stejně jako u počítačové verze, ne jen cestu -->
	<path class="st2" d="M251,443.8h-38.1c-0.5,0-0.9-0.3-1-0.8l-4.8-23.8c-0.1-0.3,0-0.6,0.2-0.9c0.2-0.2,0.5-0.4,0.8-0.4h38.1
		c0.5,0,0.9,0.3,1,0.8l4.8,23.8c0.1,0.5-0.2,1.1-0.7,1.2C251.2,443.8,251.1,443.8,251,443.8L251,443.8z M213.7,441.7h36l-4.4-21.8
		h-36L213.7,441.7z"/>
	<rect x="208.1" y="395.1" class="st0" width="38.1" height="23.8"/>
	<path class="st2" d="M246.3,419.9h-38.1c-0.6,0-1-0.4-1-1V395c0-0.6,0.4-1,1-1h38.1c0.6,0,1,0.4,1,1v23.8
		C247.3,419.5,246.9,419.9,246.3,419.9L246.3,419.9z M209.2,417.9h36.1v-21.8h-36.1L209.2,417.9z"/>
	<rect x="212.4" y="422.7" class="st2" width="5.8" height="2.1"/>
	<rect x="221.2" y="422.7" class="st2" width="5.8" height="2.1"/>
	<rect x="230" y="422.7" class="st2" width="5.8" height="2.1"/>
	<rect x="238.8" y="422.7" class="st2" width="5.8" height="2.1"/>
	<rect x="213.5" y="427.8" class="st2" width="5.8" height="2.1"/>
	<rect x="222.3" y="427.8" class="st2" width="5.8" height="2.1"/>
	<rect x="231.1" y="427.8" class="st2" width="5.8" height="2.1"/>
	<rect x="239.9" y="427.8" class="st2" width="5.8" height="2.1"/>
	<rect x="214.5" y="432.9" class="st2" width="5.8" height="2.1"/>
	<rect x="223.3" y="432.9" class="st2" width="5.8" height="2.1"/>
	<rect x="232.1" y="432.9" class="st2" width="5.8" height="2.1"/>
	<rect x="240.9" y="432.9" class="st2" width="5.8" height="2.1"/>
	<rect x="219.7" y="437.6" class="st2" width="25.3" height="2.1"/>
	<path class="st2" d="M242.5,415.2h-21.1v-11.6h21.1V415.2z M223.5,413.1h17v-7.4h-17V413.1z"/>
	<rect x="212.9" y="399.8" class="st9" width="14.3" height="9.5"/>
	<path class="st2" d="M228.2,410.4h-16.4v-11.6h16.4V410.4z M213.9,408.3h12.2v-7.5h-12.2V408.3z"/>
</g>
<g id="_mouse">
	<path class="st0" d="M257,424.5L257,424.5c2.2-1.5,5.1-0.9,6.6,1.3l1.8,2.6c1.5,2.2,0.9,5.2-1.3,6.6l0,0c-2.2,1.5-5.1,0.9-6.6-1.3
		l-1.8-2.6C254.2,428.9,254.8,426,257,424.5z"/>
	<path class="st2" d="M261.4,436.9c-1.9,0-3.8-1-4.8-2.6l-1.8-2.6c-1.7-2.7-1-6.2,1.6-8c2.7-1.7,6.2-1,8,1.6l1.8,2.6
		c1.8,2.7,1.1,6.3-1.6,8l0,0l0,0C263.6,436.6,262.5,436.9,261.4,436.9z M259.6,424.7c-0.7,0-1.4,0.2-2.1,0.6c-1.7,1.2-2.1,3.5-1,5.2
		l1.8,2.6c1.2,1.7,3.5,2.1,5.2,1l0,0c1.7-1.2,2.1-3.5,1-5.2l-1.8-2.6c-0.5-0.8-1.4-1.4-2.4-1.6C260.1,424.7,259.9,424.7,259.6,424.7
		z"/>

		<rect x="256.6" y="427.2" transform="matrix(0.8241 -0.5664 0.5664 0.8241 -196.9187 222.3027)" class="st2" width="5.8" height="2.1"/>
</g>
<g id="_lamp">

		<radialGradient id="_lamp-light-radius_1_" cx="1888.715" cy="4191.1128" r="45.7289" fx="1847.4773" fy="4171.3496" gradientTransform="matrix(-2.198956e-02 0.9998 -0.9998 -2.198956e-02 4521.5396 -1359.9802)" gradientUnits="userSpaceOnUse">
		<stop  offset="0" style="stop-color:#FFE252"/>
		<stop  offset="1" style="stop-color:#FFE252;stop-opacity:0"/>
	</radialGradient>
	<circle id="_lamp-light-radius" class="st11" cx="289.9" cy="436.2" r="45.7"/>
	<path class="st0" d="M303.7,388.7l15.6,7.8c0,0,6-16.5,1.6-18.7l-3.1-1.6C313.3,374.1,303.7,388.7,303.7,388.7z"/>
	<path class="st9" d="M319.9,397.9l-17.7-8.8l0.6-1c1.7-2.5,10.2-15,15.2-12.9l0,0l0.2,0.1l0,0l3.1,1.6c5,2.5,0,17.1-1,20
		L319.9,397.9z M305.2,388.3l13.5,6.8c2.2-6.3,4-15.2,1.7-16.3l-2.7-1.4l-0.4-0.2l0,0C315,376,309,382.8,305.2,388.3z"/>
	<ellipse class="st0" cx="331.4" cy="417.5" rx="15" ry="3.8"/>
	<path class="st9" d="M331.4,422.3c-6,0-16-1-16-4.8s10.1-4.8,16-4.8s16,1,16,4.8S337.4,422.3,331.4,422.3z M331.4,414.8
		c-8.6,0-13.7,1.8-14,2.7c0.2,0.9,5.4,2.7,14,2.7s13.7-1.8,14-2.7C345.1,416.6,340,414.8,331.4,414.8z"/>
	<path class="st2" d="M332.2,417.7l-1.7-1.1c0.2-0.2,15.2-23.1,5-36.7c-4.8-6.4-8.1-7.5-9.9-7.3c-2.5,0.3-3.7,2.8-3.7,2.9l-1.9-0.9
		c0.1-0.1,1.7-3.7,5.4-4.1s7.5,2.4,11.8,8.1C348.2,393.4,332.9,416.7,332.2,417.7z"/>
</g>
<g id="_pen">
	<polygon class="st2" points="322.6,434.3 323.6,434.6 324.6,434.8 324,435.5 323.4,436.2 323,435.3 	"/>

		<rect x="329.5" y="433.4" transform="matrix(0.6576 -0.7533 0.7533 0.6576 -219.1457 399.7973)" class="st2" width="1.6" height="15.3"/>
</g>
<g id="_pencils-crucible">
	<g id="_pencils">
		<polygon class="st7" points="278.8,395.1 279.1,396.1 279.3,397.1 278.4,396.9 277.4,396.6 278.1,395.9 	"/>

		<rect x="267.6" y="405" transform="matrix(0.2416 -0.9704 0.9704 0.2416 -184.3145 575.7592)" class="st7" width="17.1" height="1.6"/>

		<rect x="265.6" y="403.3" transform="matrix(0.1269 -0.9919 0.9919 0.1269 -162.2143 623.9061)" class="st7" width="15.3" height="1.6"/>
		<polygon class="st7" points="272,414.1 271.7,413.2 271.3,412.2 272.3,412.3 273.2,412.4 272.6,413.3 	"/>

		<rect x="268.9" y="398.2" transform="matrix(0.9985 -5.460299e-02 5.460299e-02 0.9985 -21.6407 15.3286)" class="st7" width="1.6" height="11"/>
		<polygon class="st7" points="269.3,395.7 269.8,396.6 270.3,397.5 269.4,397.5 268.4,397.6 268.8,396.6 	"/>
	</g>

	<g id="_crucible">
		<!-- TODO: Desktopová verze má okraje (stroke), tady je výplň (fill). Je potřeba tady také mít okraje. -->
		<path class="st7" d="M272.9,405.5c-3.7,0-7.5-1-7.5-3.1s3.8-3.1,7.5-3.1s7.5,1,7.5,3.1S276.6,405.5,272.9,405.5z M267.6,402.4
		c3.4,1.4,7.2,1.4,10.6,0c-0.5-0.4-2.4-1-5.3-1C270,401.4,268.1,402,267.6,402.4z"/>
		<ellipse id="_crucible-bottom" class="st0" cx="272.8" cy="417.6" rx="4.1" ry="2"/>
		<path class="st7" d="M272.8,420.7c-2.9,0-5.1-1.3-5.1-3.1c0-1.8,2.2-3.1,5.1-3.1s5.1,1.3,5.1,3.1
		C277.9,419.4,275.7,420.7,272.8,420.7z M272.8,416.6c-2.1,0-3,0.8-3,1s1,1,3,1s3-0.8,3-1S274.9,416.6,272.8,416.6z"/>
		<path class="st7" d="M268.8,419.1c-0.5,0-0.9-0.4-1-0.9l-2.4-15.7c-0.1-0.6,0.3-1.1,0.9-1.2s1.1,0.3,1.2,0.9l2.4,15.7
		c0.1,0.5-0.3,1.1-0.8,1.2c0,0,0,0-0.1,0H268.8z"/>
		<path class="st7" d="M277,418.7h-0.2c-0.5-0.1-0.9-0.6-0.9-1.1c0,0,0,0,0-0.1l2.4-15.2c0.1-0.6,0.6-0.9,1.2-0.8s0.9,0.6,0.8,1.2
		l-2.4,15.2C277.9,418.3,277.4,418.7,277,418.7z"/>
	</g>
</g>
<g id="_papers">
	<g id="_paper-1">
		<polygon class="st13" points="279.7,432.2 294,456 313.1,451.3 298.8,427.4 		"/>
		<path class="st14" d="M294,457.1c-0.4,0-0.7-0.2-0.9-0.5l-14.3-23.9c-0.3-0.5-0.2-1.1,0.3-1.4c0.1-0.1,0.2-0.1,0.4-0.2l19.1-4.8
			c0.4-0.1,0.9,0.1,1.1,0.5l14.3,23.8c0.2,0.3,0.2,0.6,0.1,0.9s-0.4,0.5-0.7,0.6l-19.1,4.8C294.2,457,294.1,457.1,294,457.1z
			 M281.3,432.9l13.2,22l17-4.2l-13.2-22L281.3,432.9z"/>
	</g>
	<g id="_paper-2">
		<polygon class="st0" points="284.4,424.1 298.7,448 317.8,443.2 303.5,419.4 		"/>
		<path class="st2" d="M298.7,449c-0.4,0-0.7-0.2-0.9-0.5l-14.3-23.8c-0.3-0.5-0.2-1.1,0.3-1.4c0.1-0.1,0.2-0.1,0.4-0.1l19.1-4.8
			c0.4-0.1,0.9,0.1,1.1,0.5l14.3,23.8c0.2,0.3,0.2,0.6,0.1,0.9s-0.4,0.5-0.7,0.6L299,449C298.8,449,298.8,449,298.7,449z M286,424.8
			l13.2,22l17-4.2l-13.2-22L286,424.8z"/>
		<line class="st6" x1="289.9" y1="426.6" x2="302" y2="423.6"/>
		<path class="st2" d="M289.9,427.6c-0.6,0.1-1.1-0.3-1.1-0.9s0.3-1.1,0.9-1.1l12.1-3c0.6-0.1,1.1,0.2,1.2,0.8
			c0.1,0.6-0.2,1.1-0.8,1.2l-12.1,3C290,427.6,289.9,427.6,289.9,427.6z"/>
		<line class="st6" x1="292.1" y1="430.1" x2="301.1" y2="427.9"/>
		<path class="st2" d="M292.1,431.1c-0.5,0-0.9-0.3-1-0.8c-0.1-0.6,0.2-1.1,0.8-1.3l9-2.2c0.6-0.1,1.1,0.2,1.3,0.8
			c0.1,0.6-0.2,1.1-0.8,1.3l-9,2.2H292.1z"/>
	</g>
</g>
<g id="_trash-can">
	<path class="st7" d="M251,496.8c-9.6,0-19.3-2.3-19.3-6.6s9.7-6.7,19.3-6.7s19.3,2.3,19.3,6.7S260.6,496.8,251,496.8z M251,485.5
		c-10.5,0-17.3,2.7-17.3,4.6s6.7,4.6,17.3,4.6c10.5,0,17.3-2.7,17.3-4.6C268.3,488.3,261.6,485.5,251,485.5z"/>
	<ellipse class="st0" cx="251" cy="517.5" rx="11.6" ry="5.6"/>
	<path class="st7" d="M251,524.2c-7.1,0-12.6-2.9-12.6-6.6c0-3.7,5.5-6.6,12.6-6.6s12.6,2.9,12.6,6.6
		C263.6,521.3,258.1,524.2,251,524.2z M251,513c-6.2,0-10.5,2.4-10.5,4.6c0,2.2,4.3,4.6,10.5,4.6c6.2,0,10.5-2.4,10.5-4.6
		C261.6,515.4,257.2,513,251,513z"/>
	<path class="st7" d="M239.5,519.4c-0.5,0-0.9-0.3-1-0.8l-6.7-28.3c-0.1-0.6,0.2-1.1,0.8-1.2s1.1,0.2,1.2,0.8l6.7,28.3
		c0.1,0.5-0.2,1.1-0.7,1.2c0,0,0,0-0.1,0H239.5z"/>
	<path class="st7" d="M262.6,518.6c-0.1,0-0.2,0-0.3,0c-0.5-0.1-0.9-0.6-0.8-1.2c0,0,0,0,0-0.1l6.7-27.4c0.1-0.6,0.7-0.9,1.2-0.8
		s0.9,0.7,0.8,1.2l-6.7,27.4C263.5,518.2,263.1,518.6,262.6,518.6z"/>
	<path class="st2" d="M254.6,518.9h-0.3c-1.4,0-2.8-0.6-3.7-1.7c-0.7-1.2-0.7-2.6-0.2-3.8c0.3-1,1.1-1.9,2.2-2.2
		c0.9-0.2,1.9,0,2.7,0.5l0.2-0.1l0.4-0.2c-0.1-0.1-0.3-0.2-0.5-0.3c-0.2-0.1-0.4-0.3-0.5-0.5h-0.1c-1.9-0.3-3.4-0.6-3.5-1.9
		c0-0.7,0.4-1.3,1-1.6c1.6-1,3.5-1.1,5.2-0.5c0.6,0.3,2.4,1.2,2.5,2.9c0,0.1,0,0.3,0,0.4c0.9,0.5,1.6,1.2,2,2.2
		c0.3,0.9,0.3,2.4-1.2,4.3C259.1,518,256.9,518.9,254.6,518.9z M253.2,513.1H253c-0.4,0.2-0.7,0.6-0.8,1c-0.3,0.6-0.3,1.4,0,2
		c0.6,0.5,1.3,0.8,2.1,0.8c1.7,0.1,3.4-0.6,4.6-1.8c0.6-0.6,0.9-1.5,0.8-2.4c-0.2-0.5-0.5-0.8-1-1l-0.3,0.2c0.1,0.4,0.1,0.8-0.1,1.1
		c-0.2,0.6-0.7,1-1.3,1.3c0.1,0.2,0.2,0.4,0.2,0.6c0.2,0.6-0.1,1.1-0.7,1.3s-1.1-0.1-1.3-0.7c-0.1-0.3-0.2-0.6-0.4-0.9
		c-0.6,0-1.1-0.3-1.3-0.8c-0.1-0.2-0.1-0.3-0.1-0.5C253.5,513.1,253.4,513.1,253.2,513.1L253.2,513.1z M254.3,508.2l0.7,0.1
		c0.7,0.1,1.5,0.3,2.3,0.5c-0.2-0.2-0.5-0.3-0.8-0.5C255.8,508.1,255.1,508,254.3,508.2L254.3,508.2z"/>
	<path class="st2" d="M244.7,515.7h-0.3c-1.9-0.1-4.1-1.2-4.6-3.1c-0.2-0.6-0.1-1.2,0.1-1.8c0.1-0.5,0.3-1,0.3-1.5
		c0.1-0.8,0.1-1.7,0.1-2.5c0-0.7-0.1-1.7,0.8-2c1.1-0.5,1.8,0.5,2.5,1.5l0.2,0.2c1-0.5,2.1-0.7,3.2-0.5c1.3,0.2,3.4,1,3.3,2.6
		c0,0.5-0.3,1-0.7,1.3c-0.5,0.4-1,0.7-1.7,0.8c0.9,0.4,1.5,1.2,1.6,2.1c0,0.6-0.3,1.2-0.8,1.6C247.5,515.2,246.1,515.7,244.7,515.7z
		 M242.2,509.6c-0.1,0.6-0.2,1.1-0.4,1.7c-0.1,0.5-0.1,0.5-0.1,0.7c0.3,0.9,1.7,1.6,2.8,1.7c1,0.1,2-0.3,2.7-0.9
		c-0.2-0.2-0.5-0.4-0.8-0.5c-0.5-0.2-0.7-0.8-0.5-1.3c0,0,0,0,0-0.1l0.1-0.1c-0.6-0.1-1.2-0.3-1.7-0.7c0.2,0.5,0.6,1,1,1.3
		c0.5,0.3,0.6,1,0.2,1.4c-0.3,0.5-1,0.6-1.4,0.2C243,512.2,242.3,511,242.2,509.6L242.2,509.6z M245.1,508c0.4,0.4,0.9,0.6,1.4,0.7
		c0.5,0,0.9-0.1,1.3-0.3c-0.4-0.2-0.8-0.4-1.3-0.5C246.1,507.9,245.6,507.9,245.1,508L245.1,508z"/>
</g>
<g id="_chair">
	<polyline class="st15" points="299.8,506.8 299.8,545.9 306.6,545.9 306.6,506.8 	"/>
	<path class="st2" d="M306.6,547h-6.9c-0.6,0-1-0.4-1-1v-39.2c0-0.6,0.5-1,1-1c0.6,0,1,0.5,1,1v38.1h4.8v-38.1c0-0.6,0.5-1,1-1
		c0.6,0,1,0.5,1,1V546c0,0.6-0.4,1-1,1C306.7,547,306.7,547,306.6,547z"/>
	<polyline class="st15" points="321.5,514.6 321.5,553.7 328.4,553.7 328.4,514.6 	"/>
	<path class="st2" d="M328.4,554.8h-6.9c-0.6,0-1-0.4-1-1v-39.2c0-0.6,0.5-1,1-1c0.6,0,1,0.5,1,1v38.1h4.8v-38.1c0-0.6,0.5-1,1-1
		c0.6,0,1,0.5,1,1v39.1C329.3,554.3,328.9,554.7,328.4,554.8C328.5,554.8,328.4,554.8,328.4,554.8z"/>
	<polyline class="st15" points="331.9,501 331.9,540.2 338.7,540.2 338.7,501 	"/>
	<path class="st2" d="M338.7,541.2h-6.9c-0.6,0-1-0.4-1-1V501c0-0.6,0.5-1,1-1c0.6,0,1,0.5,1,1v38.1h4.8V501c0-0.6,0.5-1,1-1
		c0.6,0,1,0.5,1,1v39.2C339.8,540.7,339.4,541.2,338.7,541.2C338.8,541.2,338.8,541.2,338.7,541.2z"/>
	<polyline class="st15" points="353.4,503.6 353.4,542.8 360.2,542.8 360.2,503.6 	"/>
	<path class="st2" d="M360.2,543.8h-6.8c-0.6,0-1-0.4-1-1v-39.2c0-0.6,0.5-1,1-1c0.6,0,1,0.5,1,1v38.1h4.8v-38.1c0-0.6,0.5-1,1-1
		c0.6,0,1,0.5,1,1v39.2C361.2,543.4,360.8,543.8,360.2,543.8C360.3,543.8,360.2,543.8,360.2,543.8z"/>
	<polygon class="st15" points="355.4,508.5 325.1,515.2 299.8,506.8 330.1,500 	"/>
	<path class="st2" d="M325.1,516.3c-0.1,0-0.2,0-0.3-0.1l-25.3-8.4c-0.4-0.1-0.7-0.5-0.7-1s0.4-0.9,0.8-1l30.3-6.8
		c0.2-0.1,0.4-0.1,0.5,0l25.4,8.5c0.4,0.1,0.7,0.5,0.7,1s-0.3,0.9-0.8,1l-30.3,6.8C325.3,516.3,325.2,516.3,325.1,516.3z M303.6,507
		l21.6,7.2l26.4-5.9l-21.5-7.2L303.6,507z"/>
	<path class="st15" d="M351.4,509.6l-17.3,3.5c-6.5,0-11.7-5.3-11.7-11.7v-25.8c0-6.5,4.3-9.7,11.7-11.7l17.3-3.5
		c6.5,0,11.7,5.3,11.7,11.7v25.8C363.1,504.3,358.2,508,351.4,509.6z"/>
	<path class="st2" d="M334.1,514.1c-7,0-12.7-5.7-12.8-12.8v-25.8c0-8.3,6.7-11.2,12.5-12.7l17.4-3.5c0.1,0,0.1,0,0.2,0
		c7,0,12.7,5.7,12.8,12.8v25.8c0,6.4-4.5,10.9-12.5,12.7l0,0l-17.3,3.5C334.2,514.1,334.1,514.1,334.1,514.1z M351.5,461.4
		l-17.2,3.5c-7.6,2.1-10.9,5.3-10.9,10.7v25.8c0,5.9,4.7,10.6,10.6,10.7l17.2-3.5c5-1.2,10.9-3.9,10.9-10.7v-25.8
		C362.1,466.3,357.3,461.5,351.5,461.4z"/>
</g>
</svg>
