<?xml version="1.0" encoding="utf-8"?>
<svg version="1.1" id="second-animate-object-desktop"
	 xmlns="http://www.w3.org/2000/svg" x="0px" y="0px" viewBox="185 192.4 966.4 534.9"
	 style="enable-background:new 185 192.4 966.4 534.9;" xml:space="preserve">
<style type="text/css">
	.st0{fill:#7F9394;}
	.st1{fill:#FFFFFF;stroke:#1D1D20;stroke-width:3;stroke-linecap:round;stroke-linejoin:round;}
	.st2{fill:none;stroke:#1D1D20;stroke-width:3;stroke-linecap:round;stroke-linejoin:round;}
	.st3{fill:#7F9394;stroke:#1D1D20;stroke-width:3;stroke-linecap:round;stroke-linejoin:round;}
	.st4{display:none;fill:#FFFFFF;stroke:#2C2C2D;stroke-width:3;stroke-linecap:round;stroke-linejoin:round;stroke-miterlimit:10;}
	.st5{display:none;}
	.st6{display:inline;fill:#FFFFFF;stroke:#2C2C2D;stroke-width:3;stroke-linecap:round;stroke-linejoin:round;stroke-miterlimit:10;}
	.st7{display:inline;fill:none;stroke:#2C2C2D;stroke-width:3;stroke-linecap:round;stroke-linejoin:round;stroke-miterlimit:10;}
	.st8{display:inline;fill:#7F9394;stroke:#2C2C2D;stroke-width:3;stroke-linecap:round;stroke-linejoin:round;stroke-miterlimit:10;}
	.st9{fill:#6A7979;}
	.st10{fill:#D2D1CE;}
	.st11{fill:#FFFFFF;}
	.st12{fill:none;stroke:#FFFFFF;stroke-width:3;stroke-linecap:round;stroke-linejoin:round;}
	.st13{display:inline;fill:none;stroke:#FFFFFF;stroke-width:3;stroke-linecap:round;stroke-linejoin:round;stroke-miterlimit:10;}
	.st14{fill:#D2D1CE;stroke:#1D1D20;stroke-width:3;stroke-linecap:round;stroke-linejoin:round;}
	.st15{fill:#FCFBFD;stroke:#1D1D20;stroke-width:3;stroke-linecap:round;stroke-linejoin:round;}
	.st16{fill:url(#_phone-light-radius_1_);}
	.phone{cursor:pointer;}
	.background{fill:#84ADA9;}
	.cup{cursor:pointer;}
	.papers{cursor:pointer;}
</style>
	<title>intruduction-second-interactive-image</title>
	<path id="_background" class="background" d="M1084.8,192.4H185v245.2c66.6,29.3,544.8,229.8,811,75.2
	C1282.7,346.3,1084.8,192.4,1084.8,192.4z"/>
	<g id="_papers" class="papers">
		<polygon id="_paper-2" class="_paper-original st1" points="518.9,523.2 443.7,648.4 343.5,623.4 418.7,498.2 	"/>
		<g id="_paper-1" class="_paper-original">
			<polygon class="st1" points="515.9,486.3 440.7,611.5 340.5,586.5 415.7,461.2 		"/>
			<line class="st2" x1="417.8" y1="476.7" x2="489.9" y2="494.7"/>
			<line class="st2" x1="411.4" y1="485.7" x2="483.5" y2="503.8"/>
			<line class="st2" x1="406.1" y1="494.7" x2="478.2" y2="512.8"/>
			<line class="st2" x1="400.3" y1="504.6" x2="472.4" y2="522.6"/>
			<line class="st2" x1="395.1" y1="513.3" x2="467.3" y2="531.3"/>
			<line class="st2" x1="389.8" y1="521.6" x2="461.9" y2="539.6"/>
			<line class="st2" x1="384.3" y1="529.8" x2="412" y2="536.7"/>
			<line class="st2" x1="379.3" y1="538.4" x2="408.1" y2="545.6"/>
			<line class="st2" x1="374.6" y1="547.4" x2="402.2" y2="554.3"/>
			<polygon class="st3" points="421,537.1 460.8,546.9 448.5,570 408.1,558.8 		"/>
		</g>
		<polygon id="_paper-2-changed" class="_paper-changed st4" points="535.5,560.9 479,695.6 376.3,685.1 432.8,550.4 	"/>
		<g id="_paper-1-changed" class="_paper-changed st5">
			<polygon class="st6" points="499.7,520.4 424.5,645.6 324.4,620.5 399.5,495.3 		"/>
			<line class="st7" x1="401.6" y1="510.8" x2="473.7" y2="528.8"/>
			<line class="st7" x1="395.2" y1="519.8" x2="467.3" y2="537.8"/>
			<line class="st7" x1="389.9" y1="528.8" x2="462" y2="546.8"/>
			<line class="st7" x1="384.1" y1="538.7" x2="456.2" y2="556.7"/>
			<line class="st7" x1="379" y1="547.4" x2="451.1" y2="565.4"/>
			<line class="st7" x1="373.6" y1="555.7" x2="445.7" y2="573.7"/>
			<line class="st7" x1="368.1" y1="563.9" x2="395.9" y2="570.8"/>
			<line class="st7" x1="363.1" y1="572.5" x2="391.9" y2="579.7"/>
			<line class="st7" x1="358.4" y1="581.5" x2="386.1" y2="588.4"/>
			<polygon class="st8" points="404.8,571.2 444.7,581 432.3,604.1 391.9,592.9 		"/>
		</g>
	</g>
	<g id="_cup" class="cup">
		<g id="_shadows">
			<ellipse class="_shadow st9" cx="653.3" cy="426" rx="54.8" ry="14.2"/>
			<ellipse class="_shadow st9" cx="708.4" cy="445.4" rx="21" ry="5.5"/>
		</g>
		<path class="st10" d="M635,343.4c0.4,0,0.8,0,1.2,0c0.5,0.1,1,0,1.5,0.1c0.3,0,0.4,0.2,0.7,0.2c0.2,0,0.4,0,0.6,0h1.4
		c0.5,0,1,0,1.5,0c0.9,0,1.8-0.3,2.8-0.3c0.3-0.1,0.7-0.2,1-0.3c0.4-0.1,0.8-0.1,1.2-0.1H659c0.3,0,0.5,0.1,0.7,0.3
		c0.5,0.3,1,0.6,1.5,0.9c0.6,0.2,1.2,0.4,1.8,0.5c0.5,0.1,0.9,0.1,1.4,0.1c0.3,0,0.5,0.2,0.7,0.2s0.3,0,0.5,0
		c0.2,0.1,0.4,0.2,0.5,0.3c0.6,0.2,1.2,0.4,1.9,0.5l0.7,0.2c0.4,0,0.9,0.1,1.3,0.2c0.6,0.2,1.2,0.4,1.9,0.6c0.4,0.1,0.7,0.3,1.1,0.4
		c0.4,0.1,0.5,0.1,0.7,0.1c0.3,0.1,0.5,0.2,0.7,0.3c0.6,0.3,1.3,0.6,1.9,0.8c0.4,0.1,0.8,0.2,1.1,0.4c0.4,0.2,0.7,0.5,1.1,0.7
		l1.2,0.7c0.7,0.4,1.5,0.8,2.2,1.2c0.6,0.6,1.3,1.1,1.9,1.6c0.2,0.1,0.4,0.1,0.6,0.1s0.5,0.1,0.7,0.2s0.3,0.2,0.5,0.3
		c0.3,0.2,0.6,0.3,0.9,0.5c0.4,0.3,0.8,0.6,1.2,1c0.5,0.5,0.8,1.2,1.3,1.6c0.4,0.3,0.7,0.6,1.1,0.9c0.3,0.3,0.6,0.7,0.8,1.1
		c0.1,0.3,0.3,0.6,0.4,0.9c0.2,0.4,0.3,0.9,0.5,1.2c0.1,0.1,0.2,0.3,0.2,0.5c0.1,0.2,0.1,0.4,0.2,0.6c0,0.1,0.1,0.3,0.1,0.4
		c0.1,0.2,0.1,0.4,0.1,0.5c0,0.5,0,1.1-0.1,1.6c-0.1,0.8-0.1,1.6,0,2.4c0,0.2,0,0.4,0,0.5c0,0.2-0.1,0.4-0.2,0.6
		c-0.1,0.2,0,0.4-0.1,0.6c-0.1,0.2-0.1,0.4-0.2,0.6c-0.1,0.6-0.2,1.2-0.3,1.7c0,0.3,0,0.3-0.2,0.5c-0.2,0.2-0.3,0.3-0.5,0.4
		l-0.3,0.2c-0.2,0.1-0.2,0.2-0.3,0.3c-0.2,0.1-0.4,0.2-0.7,0.1c-0.4-0.2-0.9-0.4-1.2-0.7c-1-0.6-2.2-1-3.3-1.3
		c-0.6-0.2-1.1-0.4-1.7-0.5c-1.6-0.4-3.3-0.9-4.9-1.4c-0.5-0.2-1-0.4-1.5-0.5c-0.6-0.2-1.3-0.3-2-0.3c-2-0.3-4-0.7-6-1.1
		c-2-0.4-3.8-0.8-5.7-1.1c-1.9-0.3-3.8-0.4-5.7-0.6c-1.3-0.1-2.5-0.3-3.8-0.5c-4.6-0.6-9.4-0.3-14.1-0.4c-1.5,0-2.9,0-4.4-0.1
		c-1.2-0.1-2.4-0.1-3.6-0.1c-1,0.1-2,0.2-2.9,0.5c-1.2,0.5-2.3,1-3.4,1.6c-1.3,0.7-2.7,1.2-4.2,1.6c-2.3,0.6-4.6,1.2-6.9,1.6
		c-1.8,0.3-3.5,0.4-5.3,0.6c-0.7,0.1-1.3,0.2-2,0.3c-0.8,0-1.7,0.1-2.5,0.3c-1,0.3-2,0.8-2.9,1.4c-0.5,0.2-0.8,0.6-1.1,1
		c0,0.1-0.1,0.2-0.1,0.3c-0.2,0.2-0.8,0.4-1,0.4c-0.5,0.2-1.1,0.4-1.6,0.5c-0.2,0-0.5-0.1-0.6-0.3c-0.3-0.3-0.6-0.5-0.8-0.8
		c-0.3-0.3-0.6-0.6-0.9-1c-0.2-0.3-0.3-0.6-0.4-0.9c-0.1-0.4-0.2-0.8-0.2-1.2c-0.1-0.2-0.2-0.5-0.3-0.7c0-0.3,0-0.6,0-0.9
		c0-0.5-0.1-1-0.3-1.5c-0.2-0.6-0.3-1.1-0.3-1.7c0-0.8-0.1-1.5,0-2.3c0.1-0.3,0.2-0.6,0.4-0.9c0.1-0.2,0.3-0.4,0.5-0.6
		c0.2-0.2,0.3-0.5,0.5-0.7c0.2-0.2,0.2-0.4,0.3-0.6s0.2-0.5,0.3-0.8c0.1-0.3,0.3-0.3,0.4-0.5c0.2-0.3,0.4-0.6,0.6-0.9
		c0.3-0.3,0.5-0.7,0.8-1c0.2-0.2,0.4-0.4,0.6-0.6c0.3-0.3,0.8-0.4,1.1-0.7c0.4-0.2,0.6-0.3,0.9-0.5c0.3-0.2,0.4-0.3,0.6-0.5
		c0.4-0.3,0.8-0.6,1.2-0.9c0.4-0.3,0.7-0.6,1.1-0.8c0.2-0.1,0.4-0.2,0.5-0.4c0.2-0.1,0.3-0.3,0.5-0.5c0.5-0.4,1.1-0.6,1.7-0.8
		c0.5-0.1,0.8-0.1,1.2-0.4c0.2-0.2,0.4-0.5,0.6-0.8c0.3-0.4,0.6-0.6,1-0.8c0.3-0.1,0.5-0.1,0.8-0.2c0.1,0,0.2-0.2,0.3-0.2
		c0.3-0.1,0.6-0.2,0.9-0.2c0.7-0.1,1.4-0.3,2.1-0.5c0.3-0.1,0.6-0.2,0.8-0.3s0.6-0.1,0.9-0.3c0.3-0.1,0.5-0.3,0.8-0.4
		c0.5-0.2,1-0.4,1.5-0.6c0.1-0.1,0.2-0.2,0.3-0.3c0.3-0.2,0.7-0.1,1.1-0.1c0.6-0.1,1.2-0.2,1.8-0.3c0.8,0,1.5-0.1,2.2-0.3
		c0.4-0.1,0.7-0.3,1-0.5c0.3-0.2,0.7-0.1,1.1-0.2c0.2-0.1,0.4-0.1,0.7-0.2c0.5,0,0.9,0,1.4-0.1s1-0.2,1.4-0.3c0.4,0,1.1-0.3,1.7-0.4
		c0.8-0.1,1.5-0.1,2.3-0.1c0.3,0,0.5,0,0.8,0c0.3,0,0.6-0.1,0.9-0.1c0.2,0,0.5,0,0.7,0s1.1-0.2,1.1-0.4"/>
		<path class="st10" d="M690.3,397.9c0.2,0,0.4,0,0.5,0.1c0.2,0,0.4,0,0.6,0h0.8c0.2,0,0.3,0,0.5-0.1c0.1,0,0.1,0,0.2-0.1h0.2
		c0.1,0,0.1-0.1,0.1-0.1c0.1-0.1,0.1,0,0.1,0s0.2-0.1,0.3-0.2c0.1,0,0.1,0,0.2,0c0.1,0,0.2-0.1,0.3-0.1c0.2,0,0.4,0,0.5,0l0.2-0.1
		c0.1,0,0.2,0,0.3,0c0.3,0,0.6-0.1,0.8-0.2l0.4-0.2c0.2-0.1,0.3-0.1,0.5-0.2l0.1-0.1h0.1c0.1,0,0.1-0.1,0.1-0.1c0.1,0,0.2,0,0.3,0
		c0.2,0,0.3,0,0.5-0.1c0.2,0,0.3-0.1,0.5-0.2s0.4-0.2,0.7-0.4l0.4-0.2c0.1-0.1,0.3-0.1,0.4-0.2c0.1-0.1,0.2-0.1,0.4-0.2h0.2
		c0.1,0,0.2-0.1,0.3-0.1c0.2-0.1,0.3,0,0.5-0.1s0.5-0.2,0.8-0.3c0.2-0.1,0.4-0.1,0.6-0.2c0.2-0.1,0.4-0.2,0.5-0.3
		c0.2-0.1,0.4-0.2,0.5-0.3s0.2-0.2,0.3-0.2c0.2-0.1,0.4-0.2,0.6-0.3c0.2-0.2,0.5-0.3,0.7-0.5c0.1-0.1,0.2-0.2,0.3-0.3
		s0.3-0.1,0.4-0.2c0-0.1,0.1-0.1,0.1-0.2c0.1-0.1,0.2-0.2,0.3-0.2l0.1-0.1c0.1-0.1,0.2-0.1,0.2-0.2c0.1-0.1,0.3-0.2,0.4-0.3
		c0.1-0.1,0.3-0.2,0.4-0.3c0.1-0.1,0.2-0.2,0.3-0.4c0.2-0.2,0.3-0.4,0.4-0.5c0.1-0.1,0.2-0.2,0.3-0.4c0.1-0.2,0.1-0.2,0.2-0.4
		l0.2-0.1c0.1-0.1,0.2-0.2,0.3-0.4c0.1-0.3,0.3-0.5,0.4-0.8c0.1-0.3,0.2-0.3,0.3-0.5c0.1-0.2,0.3-0.4,0.4-0.6
		c0.1-0.2,0.2-0.4,0.3-0.6c0-0.1,0.1-0.3,0.2-0.4c0.1-0.1,0.1-0.3,0.1-0.4c0-0.2,0.1-0.4,0.3-0.6c0.1-0.2,0.2-0.4,0.4-0.6
		c0.1-0.2,0.3-0.3,0.5-0.3h0.3c0.2,0,0.3,0,0.4,0.2c0.1,0.2,0.1,0.1,0.1,0.2l0.2,0.4c0.1,0.1,0.1,0.2,0.1,0.3s0,0.2,0.1,0.4
		c0.1,0.2,0.1,0.3,0.1,0.4s0.1,0.3,0.2,0.4c0,0.2,0.1,0.3,0.1,0.5c0,0.2,0,0.3,0.1,0.5c0.1,0.2,0.1,0.4,0.1,0.7c0,0.3,0,0.6,0,0.9
		c0,0.1,0,0.3-0.1,0.4c0,0.1-0.1,0.2-0.2,0.3s0,0.2-0.1,0.2c-0.1,0.1-0.1,0-0.1,0.1c-0.1,0.2-0.2,0.3-0.3,0.5c0,0.1-0.1,0.2-0.1,0.3
		c-0.1,0.3-0.2,0.6-0.3,0.8c-0.2,0.4-0.4,0.9-0.6,1.3c-0.1,0.2-0.2,0.4-0.3,0.7c-0.1,0.2-0.1,0.3-0.1,0.4c-0.3,0.8-0.6,1.5-0.9,2.3
		c-0.1,0.2-0.1,0.3-0.2,0.5c0,0.2-0.1,0.3-0.2,0.5c0,0.1,0,0.2-0.1,0.3c0,0.1-0.1,0.2-0.1,0.3c-0.1,0.3-0.3,0.6-0.5,0.9
		c-0.3,0.3-0.5,0.7-0.8,1c-0.2,0.2-0.5,0.5-0.7,0.8c-0.1,0.2-0.3,0.5-0.5,0.7c-0.1,0.1-0.3,0.2-0.4,0.2c-0.3,0.2-0.5,0.4-0.8,0.5
		c-0.2,0.1-0.4,0.3-0.6,0.5c-0.2,0.1-0.4,0.3-0.6,0.5c-0.1,0.1-0.2,0.2-0.3,0.3c-0.2,0.1-0.4,0.3-0.5,0.4c-0.2,0.2-0.4,0.3-0.6,0.5
		c-0.2,0.1-0.4,0.2-0.5,0.3c-0.2,0.1-0.3,0.2-0.5,0.2c-0.3,0.1-0.7,0.2-1,0.3s-0.5,0.2-0.7,0.3c-0.3,0.1-0.5,0.1-0.8,0.2
		c-0.3,0-0.5,0.1-0.7,0.1h-0.4c-0.2,0-0.3,0.1-0.4,0.2c-0.3,0.2-0.7,0.3-1,0.5c-0.1,0.1-0.3,0.2-0.5,0.2c-0.2,0.1-0.3,0.2-0.6,0.3
		c-0.6,0.2-1.3,0.3-1.8,0.5c-0.1,0-0.3,0.1-0.4,0.1c-0.5,0.1-1.1,0.2-1.6,0.2c-0.4,0-0.8,0-1.2,0c-0.3,0-0.5,0.1-0.8,0.1l-0.6,0.1
		c-0.3,0.1-0.5,0.2-0.8,0.3s-0.7,0.1-1.1,0.1c-0.2,0.1-0.4,0.1-0.6,0.1h-0.3c-0.1-0.1-0.1-0.3-0.1-0.5c0-0.1,0-0.2,0-0.4
		c0-0.2,0-0.4,0-0.6c0.1-0.3,0.1-0.5,0.3-0.8c0.2-0.5,0.3-1.1,0.5-1.7c0.2-0.5,0.3-1.1,0.3-1.6c0-0.2,0.1-0.4,0.1-0.7
		c0.1-0.3,0.1-0.7,0.2-1c0.1-0.3,0.2-0.7,0.4-1c0.1-0.2,0.2-0.4,0.3-0.6c0.1-0.2,0.2-0.4,0.3-0.7c0.1-0.2,0.2-0.4,0.2-0.6
		C690.1,398.3,690.2,398.1,690.3,397.9"/>
		<path class="st11" d="M693.2,368.4c0.1-0.1,0.2-0.3,0.4-0.4c0.2-0.1,0.3-0.2,0.4-0.3s0.2-0.1,0.3-0.2c0.1-0.1,0.1-0.2,0.2-0.3
		s0.2-0.2,0.3-0.4l0.1-0.1c0.1-0.1,0.1-0.1,0.2-0.2c0.1,0,0.1-0.1,0.2-0.1l0.1-0.1c0,0,0.1,0,0.1-0.1s0.1-0.1,0.2-0.1
		c0.1-0.1,0.3-0.2,0.4-0.3c0.2-0.1,0.4-0.2,0.6-0.3c0.1-0.1,0.1-0.1,0.2-0.1c0.1,0,0.3-0.1,0.4-0.1s0.2,0,0.3,0s0.1-0.1,0.2-0.1
		c0.1,0,0.2,0,0.3-0.1c0.1,0,0.2-0.1,0.3-0.1h0.2l0.2-0.1c0.2-0.1,0.4-0.1,0.6-0.1c0.1,0,0.3,0,0.4,0c0.2,0,0.3-0.1,0.5-0.1
		c0.1,0,0.2,0,0.3,0h0.3c0.1,0,0.3,0,0.4,0h2.1c0.1,0,0.2,0,0.3,0.1c0.2,0,0.4,0.1,0.5,0.2c0.2,0.2,0.5,0.3,0.8,0.4
		c0.1,0,0.3,0.1,0.4,0.2c0.1,0.1,0.2,0.1,0.3,0.2l0.2,0.1c0.1,0,0.2,0.1,0.3,0.2s0.3,0.1,0.4,0.2l0.3,0.3c0.2,0.2,0.3,0.3,0.5,0.5
		c0.1,0.2,0.3,0.3,0.4,0.5l0.2,0.1c0.1,0.1,0.1,0.1,0.2,0.1c0.1,0.1,0.1,0.1,0.2,0.2c0.1,0.1,0.2,0.1,0.3,0.2
		c0.2,0.2,0.4,0.3,0.7,0.5c0.2,0.1,0.4,0.3,0.5,0.4c0.3,0.3,0.6,0.6,0.8,0.9c0.1,0.1,0.2,0.2,0.3,0.3c0.1,0.2,0.3,0.3,0.4,0.5
		c0.1,0.1,0.2,0.2,0.2,0.3l0.2,0.3c0.1,0.1,0.1,0.2,0.2,0.4c0,0.1,0.1,0.2,0.2,0.4c0,0.1,0.1,0.2,0.2,0.4c0.1,0.2,0.1,0.3,0.1,0.4
		c0.1,0.1,0.1,0.2,0.1,0.3s0,0.3,0,0.4c0.1,0.2,0.1,0.5,0.2,0.7c0,0.2,0.1,0.4,0.2,0.6c0.1,0.3,0.2,0.6,0.2,0.9
		c0,0.2,0.1,0.3,0.1,0.5c0,0.2,0,0.5,0.1,0.7c0.1,0.2,0.1,0.4,0.1,0.6v0.6c0,0.4,0,0.9,0,1.3c0,0.1,0,0.2,0,0.3l0.1,0.1
		c0,0.1,0,0.1,0,0.2v2.5c0,0.3,0,0.6-0.1,0.9c-0.1,0.2-0.1,0.5-0.1,0.7c0,0.2-0.3,0.1-0.4,0c-0.2-0.2-0.4-0.5-0.5-0.8
		c-0.1-0.4-0.3-0.7-0.5-1c-0.1-0.1-0.2-0.3-0.3-0.4c-0.1-0.2-0.2-0.3-0.4-0.5c-0.2-0.3-0.5-0.6-0.7-0.9c-0.3-0.3-0.5-0.7-0.8-1
		c-0.3-0.3-0.3-0.3-0.5-0.5c-0.1-0.1-0.2-0.2-0.3-0.3s-0.2-0.2-0.3-0.3c-0.2-0.1-0.3-0.3-0.4-0.5c-0.4-0.5-0.9-0.9-1.4-1.3
		c-0.2-0.1-0.3-0.3-0.5-0.4c-0.1-0.1-0.2-0.1-0.3-0.2c-0.2-0.1-0.5-0.3-0.8-0.4c-0.4-0.2-0.7-0.4-1.1-0.5l-0.4-0.1c-0.3,0-0.7,0-1,0
		c-0.4,0-0.7-0.1-1.1-0.1c-0.4,0-0.8,0-1.2,0c-0.2,0-0.3,0-0.5,0c-0.2,0.1-0.4,0.1-0.6,0.2c-0.3,0.1-0.5,0.2-0.7,0.3
		c-0.3,0.1-0.7,0.3-1,0.4c-0.3,0.1-0.6,0.4-1,0.5s-0.9,0.3-1.3,0.5c-0.2,0.1-0.3,0.2-0.5,0.3s-0.5,0.3-0.8,0.5
		c-0.4,0.2-0.7,0.4-1,0.7c-0.1,0.1-0.2,0.2-0.2,0.2c-0.1,0-0.2,0.1-0.3,0.1h-0.2c-0.1,0-0.1-0.1-0.1-0.1c0-0.1,0-0.2,0-0.3V375
		c0-0.3,0-0.7,0-1c0-0.6,0.1-1.2,0.2-1.8c0-0.3,0-0.6,0.1-1s0.1-0.4,0.1-0.6s0-0.4,0-0.5c0-0.2,0-0.3,0-0.5c0-0.2,0-0.5,0-0.7
		c0-0.1,0.2-0.2,0.3-0.3s0.1-0.3,0.3-0.2c0.2,0.1,0.1,0.3-0.1,0.3"/>
		<ellipse id="_coffee" class="st0" cx="643.4" cy="378.2" rx="49.2" ry="22.8"/>
		<polygon class="st11" points="594.1,368.6 598.3,375 606.9,381.1 619.2,385.7 632.8,388.1 647.1,388.6 662.9,386.7 676.5,382.6
		685.6,377.5 691.4,371.1 692.5,367.7 692.5,375.2 691.5,388.7 689.9,397.6 686,409.9 682.7,416.4 679.4,419.8 672.4,425.3
		661.7,431 648.7,434.1 635.9,433.9 622,430.9 614.6,426.4 607.3,420.5 603,414.1 602,411.5 597.7,400.2 595.1,386.8 594.2,375.9
		"/>
		<ellipse class="st2" cx="643.4" cy="365.8" rx="49.2" ry="22.8"/>
		<path class="st2" d="M594.2,365.8c0,0-1.6,29.4,8.7,48.8"/>
		<g id="_smoke">
		<path class="st12" d="M606.9,290.9c2.8-16.5,25-23.9,37.7-13.8c5.1,3.9,8.2,8.4,9.7,13c0.4,1.5-0.1,2.6-3.7,2.1
			c-14.1-1-28.2,5.7-31.5,20.5c-1.3,7.4,2,16.1,10.7,17.5c3.4,0.7,6.7-0.7,8.1-3.4c1.3-4-2.7-10.1,1.3-13.4
			c9.4-6.7,19.5,4,20.2,13.4c1.3,13.4-9.4,25.5-22.2,28.2h1.5c1.9,0.1,3.8,0.8,5.3,1.9c3.3,2.1,7.4,6.8,6.1,11.4
			c-1,3.8-5.2,5.5-6.1,5.8"/>
			<path class="st12" d="M667.3,344.1c8.1-9,7.5-26.2,0.8-36.2c-1.9-2.8-4.4-4.8-7.3-4.7c1.4,2.7,2.8,6.2,2.3,9.6
			c-0.4,3.1-2.6,5.7-4.5,7.4c-3.6,3.3-10,5-14,1.8c-4-3.2-4.3-10.9-2.3-16.1c2-5.2,6-8.7,10.4-9.3c5-0.8,10.7,1.2,14.9,4.8
			c4.2,3.6,7,9.8,8.5,16.3c2.9,12.4,0.7,26.2-6.2,35.5c-7.6,10.3-18.5,12.5-28.8,10.9c-1.3-0.2-2.6-0.4-3.9-0.7"/>
	</g>
		<g id="_smoke-changed" class="st5">
		<path class="st13" d="M626.7,350c-8.1-9-7.5-26.2-0.8-36.2c1.9-2.8,4.4-4.8,7.3-4.7c-1.4,2.7-2.8,6.2-2.3,9.6
			c0.4,3.1,2.6,5.7,4.5,7.4c3.6,3.3,10,5,14,1.8c4.1-3.4,4.3-10.9,2.3-16.1c-2-5.3-6-8.6-10.3-9.3c-5-0.8-10.7,1.2-14.9,4.8
			c-4.3,3.7-7,9.8-8.5,16.3c-2.9,12.4-0.7,26.2,6.2,35.5c7.6,10.3,18.5,12.5,28.8,10.9c1.3-0.2,2.6-0.4,3.9-0.7"/>
			<path class="st13" d="M697.8,289c1.8-16.7-17.5-29.8-32.5-23.6c-6,2.4-10.2,5.8-12.9,9.9c-0.8,1.3-0.6,2.5,3,3.1
			c13.8,2.8,25.6,13.1,24.8,28.3c-0.7,7.5-6.3,15-15.1,13.9c-3.4-0.3-6.3-2.5-6.8-5.4c-0.2-4.2,5.3-9,2.4-13.3
			c-7.2-9-19.8-1.4-23,7.4c-4.9,12.6,2.1,27.1,13.6,33.2c-0.6-0.2-0.6-0.2-1.4-0.4c-1.4-0.3-2.9-0.5-5.7,0.4c-3.7,1.1-9,4.5-9,9.3
			c0,3.9,3.5,6.7,4.3,7.3"/>
	</g>
		<path class="st2"
			  d="M602.9,414.6c0,0,11.6,19.5,39.5,19.5c16.2,0.2,31.6-7.2,41.8-19.9c10.3-19.4,8.3-47.1,8.3-47.1"/>
		<path class="st2" d="M692.4,379.4c0,0,6.2-8.9,15-2.3c2.8,2,4.8,4.9,5.5,8.3c0.4,3,0,6-1.1,8.7c-1.1,3-2.6,6-5.2,8
		c-3.3,2.4-7,4.1-10.9,5c-2.9,0.9-5.9,1.4-8.9,1.5l0,0"/>
		<path class="st2" d="M692.4,369.2c0,0,6.2-8.9,15-2.3c2.8,2,4.8,4.9,5.5,8.3c0.3,2,0.2,14.9,0.2,12.9c0-1.9-0.5-6.7-0.9-5.8
		c-1.1,3-3,7.6-5.6,9.6c-3.3,2.4-7,4.1-10.9,5c-2.9,0.8-2.5,1-5.4,1"/>
</g>
	<g id="_book-with-pen">
	<g id="_book">
		<polygon class="st14" points="534.5,484.2 600.9,635.6 741.7,635.6 701.8,484.2 		"/>
		<polygon class="st14" points="434.2,484.2 459.8,635.6 600.6,635.6 534.1,484.2 		"/>
		<path class="st14" d="M569.1,484.2c0,0-56.9-29.1-120.6-2.7l24.7,146c0,0,60.3-20.4,127.3,8L569.1,484.2z"/>
		<path class="st14" d="M569.1,484.2c0,0,68.5-34.8,120.8-2.7l39,146c0,0-62-22.9-128.4,8L569.1,484.2z"/>
		<path class="st1" d="M569.1,484.2c0,0-51.8-40.1-115.6-13.8l24.7,146c0,0,60.3-20.1,122.3,19.1L569.1,484.2z"/>
		<path class="st1" d="M569.1,484.2c0,0,59.9-50.3,112.2-18.2l39,146c0,0-66.7-11.7-119.7,23.5L569.1,484.2z"/>
		<path class="st2" d="M465.9,477.6c0,0,51-18,95.3,13.1"/>
		<path class="st2" d="M468.6,489.1c0,0,51-18,95.3,13.1"/>
		<path class="st2" d="M471.2,500.5c0,0,51-18,95.3,13.1"/>
		<path class="st2" d="M473.9,512c0,0,51-18,95.3,13.1"/>
		<path class="st2" d="M475.9,523.4c0,0,51-18,95.3,13.1"/>
		<path class="st2" d="M478.2,534.8c0,0,51-18,95.3,13.1"/>
		<path class="st2" d="M480.6,546.2c0,0,51-18,95.3,13.1"/>
		<path class="st2" d="M483.5,557.7c11-4.3,22.9-4.9,34.6-5.1"/>
	</g>
		<g id="_pen">
		<path class="st2"
			  d="M611.4,599.8l-6.7-50.5c-0.3-2.2-2.3-3.7-4.5-3.5c-2.2,0.3-3.7,2.3-3.5,4.5l6.7,50.5L611.4,599.8z"/>
			<path class="st15"
				  d="M601.9,522.1l4.8,36l-9.4,1.2l-4.8-36c-0.3-2.6,1.5-4.9,4.1-5.3l0,0C599.2,517.8,601.6,519.6,601.9,522.1z"
			/>
			<path class="st2" d="M610.4,549.7l-3-22.6c0,0,0.1-4.8-5.4-4"/>
			<polyline class="st2" points="603.5,600.8 608.5,608.3 611.4,599.8 		"/>
	</g>
</g>
	<g id="_pencil-case">
		<ellipse class="_shadow st9" cx="505.3" cy="430.2" rx="54.8" ry="14.2"/>
		<ellipse class="st1" cx="431.9" cy="407.5" rx="26.5" ry="37.7"/>
		<ellipse class="st1" cx="545.7" cy="381" rx="26.5" ry="37.7"/>
		<path class="st2" d="M434.9,444.9c0,0,49.2,4.9,115.2-26.3"/>
		<path class="st1" d="M428.4,369.8c0,0,103.7,34.6,117.3-26.5C545.7,343.3,461.9,341.7,428.4,369.8z"/>
		<path class="st1" d="M470.6,326v87.6l87.6-87.6H470.6z M482.1,381.3v-35.5l17.8,17.8L482.1,381.3z M490.4,337.6h35.5l-17.8,17.8
		L490.4,337.6z"/>
		<path class="st2" d="M481,406.8l-44.7-44.7c-1.8-1.8-1.8-4.7,0-6.4l0,0c1.8-1.8,4.7-1.8,6.4,0l44.7,44.7c1.8,1.8,1.8,4.7,0,6.4l0,0
		C485.6,408.5,482.7,408.5,481,406.8z"/>
		<path class="st15"
			  d="M421.3,333.1l29.2,29.2l-7.6,7.6l-29.2-29.2c-2.1-2.1-2.1-5.5,0-7.6l0,0C415.8,331,419.2,331,421.3,333.1z"/>
		<path class="st2" d="M448,352.1l-18.3-18.3c0,0-3.2-4.4-7.6,0.1"/>
		<polygon class="st15" points="426.5,370.4 423.2,383.7 433.2,383.7 429.9,370.4 	"/>
		<polyline class="st15" points="456.8,324.9 450.1,317.1 448,327.2 	"/>

		<rect x="458.4" y="324.7" transform="matrix(-0.9693 0.246 -0.246 -0.9693 1002.0833 609.8006)" class="st15"
			  width="9.1" height="85.6"/>
		<polygon class="st10" points="561.2,410.7 566.1,405 569.9,396.5 572.2,382.9 570.9,369.5 567.9,360.3 559.4,348.7 551.6,344.3
		546.5,343.3 545.2,345.5 540.3,357.2 532.3,366.5 519.3,374.3 506.7,377.9 488.7,379.6 468.1,378.4 446.3,374.6 453.5,385.8
		457.7,399.4 458.2,411.4 454.7,426.5 448.6,436.7 442.8,441.8 436.7,445.4 461.4,444.1 496.1,437.9 519.3,431.1 550.5,418.6
		558.3,414.1 	"/>
		<path class="st2" d="M428.4,369.8c0,0,104.2,34.4,117.3-26.5"/>
		<path class="st2" d="M545.7,342.8c0,0,22.7,1.5,26.1,32.2c3.4,30.7-15.4,40.8-15.4,40.8s-54.9,31.6-122.5,29.2
		c0,0,18.3-3,23.1-28.6c2.8-15.1-1.7-30.6-12.2-41.8"/>
</g>
	<g id="_phone" class="phone">
	<g>
		<polygon class="st14" points="728.7,484.2 757.5,598 826.2,598 797.3,484.2 	"/>
		<polygon class="st1" points="736.2,493 760.6,585.1 818.6,585.1 794.2,493 	"/>
		<line class="st2" x1="785.5" y1="589.9" x2="797.7" y2="589.9"/>
	</g>
		<radialGradient id="_phone-light-radius_1_" cx="942.1317" cy="946.8621" r="249.33" fx="787.4212" fy="1142.3873"
						gradientTransform="matrix(0.99 -1.000009e-002 1.000009e-002 0.95 -77.1764 -429.5124)"
						gradientUnits="userSpaceOnUse">
		<stop offset="0" style="stop-color:#FFE252"/>
			<stop offset="0.67" style="stop-color:#FFE252;stop-opacity:0"/>
	</radialGradient>
		<path id="_phone-light-radius" class="st16" d="M736.4,493l-0.2-142.2c0,0,260.6-62.1,235.8,234.3l-153.2,0.5l-58.2-0.5L736.4,493z
		"/>
</g>
</svg>
