<?xml version="1.0" encoding="utf-8"?>
<svg version="1.1" id="second-animate-object-mobile"
	 xmlns="http://www.w3.org/2000/svg" x="0px" y="0px" viewBox="0 0 340.2 202.1"
	 style="enable-background:new 0 0 340.2 202.1;" xml:space="preserve">
<style type="text/css">
	.st0{fill:#7F9394;}
	.st1{fill:#FFFFFF;}
	.st2{fill:#1D1D20;}
	.st3{fill:#6A7979;}
	.st4{fill:#D2D1CE;}
	.st5{fill:#FCFBFD;}
	.st6{fill:url(#_phone-light-radius_1_);}
	.background{fill:#84ADA9;}
</style>
	<title>introduction-second-interactive-image-mobile</title>
	<path id="_background" class="background" d="M0,0v132.6c98.1,30.2,242.5,58.3,337.4,3.2l2.8-1.6V0H0z"/>
	<g id="_papers">
		<!-- Chybí změněné papíry jako jsou ve verzi pro počítač -->
		<g id="paper-2" class="_paper-original">
			<polygon class="st1" points="105.3,143.1 70.3,201.4 23.7,189.7 58.6,131.4 		"/>
			<path class="st2" d="M70.3,202.1h-0.2l-46.6-11.7c-0.2-0.1-0.4-0.2-0.5-0.4c-0.1-0.2-0.1-0.4,0-0.6l35-58.3
				c0.2-0.3,0.5-0.4,0.8-0.3l46.6,11.6c0.2,0.1,0.4,0.2,0.5,0.4c0.1,0.2,0.1,0.4,0,0.6l-35,58.2C70.8,201.9,70.6,202.1,70.3,202.1z
				 M24.8,189.3L70,200.6l34.2-57L59,132.3L24.8,189.3z"/>
		</g>
		<g id="_paper-1" class="_paper-original">
			<polygon class="st1" points="103.9,125.9 68.9,184.2 22.3,172.5 57.2,114.2 		"/>
			<path class="st2" d="M68.9,184.9h-0.2l-46.6-11.7c-0.2-0.1-0.4-0.2-0.5-0.4c-0.1-0.2-0.1-0.4,0-0.6l35-58.3
			c0.2-0.3,0.5-0.4,0.8-0.3l46.6,11.6c0.2,0.1,0.4,0.2,0.5,0.4c0.1,0.2,0.1,0.4,0,0.6l-35,58.3C69.4,184.7,69.2,184.9,68.9,184.9z
			 M23.4,172.1l45.2,11.3l34.2-57l-45.2-11.3L23.4,172.1z"/>
			<path class="st2" d="M91.8,130.5h-0.2L58,122.2c-0.4-0.1-0.6-0.5-0.5-0.8c0.1-0.4,0.5-0.6,0.8-0.5l0,0l33.6,8.4
			c0.4,0.1,0.6,0.5,0.5,0.9C92.4,130.3,92.1,130.5,91.8,130.5z"/>
			<path class="st2" d="M88.8,134.7c-0.1,0-0.1,0-0.2,0l-33.6-8.4c-0.4-0.1-0.6-0.4-0.6-0.8c0.1-0.4,0.4-0.6,0.8-0.6c0,0,0.1,0,0.1,0
			l33.6,8.4c0.4,0,0.6,0.4,0.6,0.8C89.5,134.5,89.2,134.8,88.8,134.7L88.8,134.7z"/>
			<path class="st2" d="M86.3,138.9h-0.2l-33.6-8.4c-0.4-0.1-0.6-0.5-0.5-0.8c0.1-0.4,0.5-0.6,0.8-0.5l0,0l33.6,8.4
			c0.4,0.1,0.6,0.5,0.5,0.9C86.9,138.7,86.7,138.9,86.3,138.9z"/>
			<path class="st2" d="M83.6,143.5h-0.2l-33.6-8.4c-0.4-0.1-0.6-0.4-0.6-0.8c0.1-0.4,0.4-0.6,0.8-0.6c0,0,0.1,0,0.1,0l33.6,8.4
			c0.4,0.1,0.6,0.5,0.5,0.9C84.2,143.3,83.9,143.5,83.6,143.5L83.6,143.5z"/>
			<path class="st2" d="M81.3,147.6h-0.2l-33.6-8.4c-0.4-0.1-0.6-0.5-0.5-0.8c0.1-0.4,0.5-0.6,0.8-0.5l0,0l33.6,8.4
			c0.4,0.1,0.6,0.5,0.5,0.9C81.9,147.4,81.6,147.6,81.3,147.6z"/>
			<path class="st2" d="M78.8,151.4h-0.2L45,143.1c-0.4-0.1-0.6-0.5-0.5-0.8c0.1-0.4,0.5-0.6,0.8-0.5l0,0l33.5,8.4
			c0.4,0.1,0.6,0.5,0.5,0.8c0,0,0,0,0,0C79.4,151.2,79.1,151.4,78.8,151.4z"/>
			<path class="st2" d="M55.6,150.1h-0.2l-12.9-3.2c-0.4-0.1-0.6-0.4-0.6-0.8c0.1-0.4,0.4-0.6,0.8-0.6c0,0,0.1,0,0.1,0l12.9,3.2
			c0.4,0.1,0.6,0.5,0.5,0.8C56.2,149.9,55.9,150.1,55.6,150.1L55.6,150.1z"/>
			<path class="st2" d="M53.7,154.2c-0.1,0-0.1,0-0.2,0l-13.4-3.3c-0.4-0.1-0.6-0.5-0.5-0.8c0.1-0.4,0.5-0.6,0.8-0.5l13.4,3.3
			c0.4,0,0.6,0.4,0.6,0.8C54.4,154,54.1,154.3,53.7,154.2L53.7,154.2z"/>
			<path class="st2" d="M51,158.3h-0.2L38,155c-0.4-0.1-0.5-0.5-0.4-0.9c0.1-0.3,0.4-0.5,0.8-0.5l12.8,3.2c0.4,0.1,0.6,0.5,0.5,0.8
			c0,0,0,0,0,0C51.6,158.1,51.3,158.3,51,158.3z"/>
			<polygon class="st0" points="59.7,149.5 78.3,154.1 72.5,164.9 53.7,159.7 		"/>
			<path class="st2" d="M72.5,165.6h-0.2l-18.8-5.2c-0.4-0.1-0.6-0.5-0.5-0.9c0,0,0-0.1,0-0.1l6-10.1c0.2-0.3,0.5-0.4,0.8-0.3
			l18.5,4.5c0.2,0.1,0.4,0.2,0.5,0.4c0.1,0.2,0.1,0.4,0,0.6l-5.7,10.8C73,165.5,72.8,165.6,72.5,165.6z M54.8,159.2l17.4,4.8
			l5.1-9.5l-17.2-4.2L54.8,159.2z"/>
		</g>
	</g>
	<g id="_cup">
		<g id="_shadows">
			<ellipse class="_shadow st3" cx="167.8" cy="97.8" rx="25.5" ry="6.6"/>
			<ellipse class="_shadow st3" cx="193.4" cy="106.9" rx="9.8" ry="2.5"/>
		</g>
		<path class="st4" d="M159.3,59.4c0.2,0,0.4,0,0.5,0c0.2,0,0.5,0,0.7,0s0.2,0.1,0.3,0.1h0.9c0.2,0,0.5,0,0.7,0
		c0.4,0,0.9-0.1,1.3-0.2c0.2,0,0.3-0.1,0.5-0.1c0.2,0,0.4,0,0.6,0h5.6c0.1,0,0.3,0,0.3,0.1c0.2,0.2,0.5,0.3,0.7,0.4
		c0.3,0.1,0.6,0.2,0.8,0.2c0.2,0,0.4,0,0.6,0.1c0.1,0,0.2,0.1,0.3,0.1c0.1,0,0.2,0,0.2,0s0.2,0.1,0.3,0.1c0.3,0.1,0.6,0.2,0.9,0.3
		l0.3,0.1c0.2,0,0.4,0,0.6,0.1c0.3,0.1,0.6,0.2,0.9,0.3c0.3,0.1,0.3,0.1,0.5,0.2l0.3,0c0.1,0,0.2,0.1,0.3,0.1
		c0.3,0.1,0.6,0.3,0.9,0.4c0.2,0,0.4,0.1,0.5,0.2c0.2,0.1,0.3,0.2,0.5,0.3l0.6,0.3c0.3,0.2,0.7,0.4,1,0.6c0.3,0.2,0.6,0.6,0.9,0.7
		c0.1,0,0.2,0,0.3,0c0.1,0,0.2,0,0.3,0.1l0.2,0.1c0.1,0.1,0.3,0.1,0.4,0.2c0.2,0.1,0.4,0.3,0.5,0.5c0.2,0.2,0.4,0.5,0.6,0.7
		c0.2,0.1,0.3,0.3,0.5,0.4c0.1,0.1,0.3,0.3,0.4,0.5c0.1,0.1,0.1,0.3,0.2,0.4c0.1,0.2,0.1,0.4,0.2,0.5c0,0.1,0.1,0.2,0.1,0.2
		c0,0.1,0.1,0.2,0.1,0.3c0,0.1,0,0.1,0.1,0.2c0,0.1,0.1,0.2,0.1,0.2c0,0.2,0,0.5,0,0.7c0,0.4,0,0.8,0,1.1v0.3c0,0.1,0,0.2-0.1,0.3
		c0,0.1,0,0.2,0,0.3c0,0.1-0.1,0.2-0.1,0.3c-0.1,0.3-0.1,0.5-0.1,0.8c0,0.1,0,0.1-0.1,0.2l-0.2,0.2l-0.1,0.1c-0.1,0-0.1,0.1-0.1,0.1
		c-0.1,0.1-0.2,0.1-0.3,0.1c-0.2-0.1-0.4-0.2-0.6-0.4c-0.5-0.3-1-0.5-1.5-0.6l-0.8-0.2c-0.8-0.2-1.5-0.4-2.3-0.6
		c-0.2-0.1-0.4-0.2-0.7-0.3c-0.3-0.1-0.6-0.1-0.9-0.1c-0.9-0.1-1.9-0.3-2.8-0.5c-0.9-0.2-1.8-0.4-2.7-0.5c-0.9-0.2-1.8-0.2-2.6-0.3
		l-1.8-0.2c-2.2-0.2-4.4-0.3-6.5-0.2c-0.7,0-1.4,0-2-0.1c-0.6-0.1-1.1-0.1-1.7,0c-0.5,0-0.9,0.1-1.3,0.2c-0.5,0.2-1.1,0.5-1.6,0.7
		c-0.6,0.3-1.3,0.6-1.9,0.7c-1.1,0.3-2.1,0.6-3.2,0.8c-0.8,0.1-1.6,0.2-2.4,0.3l-0.9,0.1c-0.4,0-0.8,0.1-1.2,0.1
		c-0.5,0.1-0.9,0.4-1.3,0.6c-0.2,0.1-0.4,0.3-0.5,0.5c0,0,0,0.1-0.1,0.1c-0.1,0.1-0.4,0.2-0.5,0.2c-0.2,0.1-0.5,0.2-0.8,0.2
		c-0.1,0-0.2,0-0.3-0.1c-0.1-0.1-0.3-0.2-0.4-0.4c-0.2-0.1-0.3-0.3-0.4-0.5c-0.1-0.1-0.1-0.3-0.2-0.4c-0.1-0.2-0.1-0.3-0.2-0.5
		c0-0.1-0.1-0.2-0.1-0.4v-0.4c0-0.2,0-0.5-0.1-0.7c-0.1-0.3-0.1-0.5-0.1-0.8c0-0.3,0-0.7,0-1.1c0-0.2,0.1-0.3,0.2-0.4
		c0.1-0.1,0.1-0.2,0.2-0.2c0.1-0.1,0.1-0.2,0.2-0.3c0.1-0.1,0.1-0.2,0.1-0.3c0-0.1,0.1-0.3,0.1-0.4s0.1-0.1,0.2-0.2
		c0.1-0.1,0.2-0.3,0.3-0.4c0.1-0.1,0.2-0.3,0.4-0.5c0.1-0.1,0.2-0.2,0.3-0.3c0.2-0.1,0.4-0.2,0.5-0.3c0.2-0.1,0.3-0.1,0.4-0.2
		c0.1-0.1,0.2-0.1,0.3-0.2c0.2-0.1,0.4-0.3,0.6-0.4c0.2-0.1,0.3-0.3,0.5-0.4l0.3-0.2c0.1-0.1,0.1-0.2,0.2-0.2
		c0.2-0.2,0.5-0.3,0.8-0.4c0.2,0,0.4,0,0.5-0.2c0.1-0.1,0.2-0.2,0.3-0.4c0.1-0.2,0.3-0.3,0.4-0.4c0.1-0.1,0.3,0,0.4-0.1
		c0,0,0.1-0.1,0.1-0.1c0.1-0.1,0.3-0.1,0.4-0.1c0.3-0.1,0.7-0.1,1-0.2l0.4-0.1c0.1,0,0.3-0.1,0.4-0.1c0.1,0,0.2-0.1,0.4-0.2
		c0.2-0.1,0.5-0.2,0.7-0.3c0,0,0.1-0.1,0.1-0.1c0.2-0.1,0.3-0.1,0.5-0.1c0.3,0,0.6-0.1,0.8-0.1c0.3,0,0.7,0,1-0.1
		c0.2-0.1,0.3-0.2,0.5-0.2c0.2-0.1,0.3,0,0.5-0.1c0.1,0,0.2-0.1,0.3-0.1h0.6c0.2,0,0.4-0.1,0.7-0.1c0.2,0,0.5-0.1,0.8-0.2l1.1,0h0.4
		h0.4c0.1,0,0.2,0,0.3,0S159.4,59.6,159.3,59.4"/>
		<path class="st4" d="M185,84.8c0.1,0,0.2,0,0.3,0h0.6c0.1,0,0.2,0,0.2,0c0,0,0.1,0,0.1,0h0.1l0.1-0.1c0,0,0,0,0.1,0
		s0.1-0.1,0.1-0.1h0.1l0.1,0c0.1,0,0.2,0,0.3,0h0.1h0.2c0.1,0,0.3-0.1,0.4-0.1l0.2-0.1c0.1,0,0.2,0,0.2-0.1l0,0h0.1c0,0,0,0,0.1,0
		s0.1,0,0.1,0c0.1,0,0.1,0,0.2,0c0.1,0,0.2,0,0.2-0.1c0.1-0.1,0.2-0.1,0.3-0.2l0.2-0.1l0.2-0.1l0.2-0.1h0.1l0.1-0.1
		c0.1,0,0.2,0,0.2-0.1c0.1-0.1,0.3-0.1,0.4-0.1c0.1,0,0.2-0.1,0.3-0.1c0.1-0.1,0.2-0.1,0.3-0.1c0.1,0,0.2-0.1,0.3-0.1
		c0,0,0.1-0.1,0.1-0.1c0.1,0,0.2-0.1,0.3-0.1c0.1-0.1,0.2-0.2,0.3-0.2c0.1,0,0.1-0.1,0.1-0.1s0.1-0.1,0.2-0.1s0-0.1,0.1-0.1
		c0,0,0.1-0.1,0.1-0.1l0.1-0.1l0.1-0.1c0.1-0.1,0.1-0.1,0.2-0.1c0.1-0.1,0.1-0.1,0.2-0.1c0.1,0,0.1-0.1,0.1-0.2
		c0.1-0.1,0.1-0.2,0.2-0.3c0-0.1,0.1-0.1,0.1-0.2s0.1-0.1,0.1-0.2l0.1,0c0.1,0,0.1-0.1,0.1-0.2c0.1-0.1,0.1-0.2,0.2-0.3
		c0-0.1,0.1-0.1,0.1-0.2l0.2-0.3c0.1-0.1,0.1-0.2,0.1-0.3c0-0.1,0-0.1,0.1-0.2c0-0.1,0-0.1,0.1-0.2c0-0.1,0.1-0.2,0.1-0.3
		c0.1-0.1,0.1-0.2,0.2-0.3c0.1-0.1,0.1-0.1,0.2-0.1h0.1c0.1,0,0.1,0,0.2,0.1c0,0,0,0.1,0,0.1l0.1,0.2l0.1,0.1c0,0,0,0.1,0,0.2
		c0,0.1,0.1,0.1,0.1,0.2c0,0.1,0,0.1,0.1,0.2c0,0.1,0,0.2,0,0.2c0,0.1,0,0.1,0,0.2c0,0.1,0,0.2,0.1,0.3v0.3c0,0.1,0,0.1,0,0.2
		c0,0-0.1,0.1-0.1,0.1c0,0,0,0.1,0,0.1l0,0c0,0.1-0.1,0.1-0.1,0.2c0,0-0.1,0.1-0.1,0.1l-0.2,0.4c-0.1,0.2-0.2,0.4-0.3,0.6
		c-0.1,0.2-0.1,0.2-0.1,0.3s0,0.1-0.1,0.2c-0.1,0.4-0.3,0.7-0.4,1.1c0,0.1-0.1,0.2-0.1,0.2c0,0.1-0.1,0.2-0.1,0.2c0,0,0,0.1,0,0.1
		c0,0,0,0.1,0,0.1c-0.1,0.2-0.1,0.3-0.3,0.4c-0.1,0.2-0.3,0.3-0.4,0.5c-0.1,0.1-0.2,0.2-0.3,0.4c-0.1,0.1-0.1,0.2-0.2,0.3
		c-0.1,0-0.1,0.1-0.2,0.1c-0.1,0.1-0.2,0.2-0.4,0.2l-0.3,0.2c-0.1,0.1-0.2,0.2-0.3,0.3c0,0.1-0.1,0.1-0.1,0.1
		c-0.1,0.1-0.2,0.1-0.3,0.2c-0.1,0.1-0.2,0.2-0.3,0.2c-0.1,0-0.2,0.1-0.3,0.1c-0.1,0-0.2,0.1-0.2,0.1l-0.5,0.1l-0.3,0.1
		c-0.1,0-0.2,0.1-0.4,0.1c-0.1,0-0.2,0-0.3,0.1h-0.2c-0.1,0-0.1,0-0.2,0.1l-0.5,0.2l-0.2,0.1c-0.1,0-0.2,0.1-0.3,0.1
		c-0.3,0.1-0.6,0.1-0.9,0.2l-0.2,0.1c-0.2,0.1-0.5,0.1-0.8,0.1c-0.2,0-0.4,0-0.6,0c-0.1,0-0.3,0-0.4,0.1H185c-0.1,0-0.3,0.1-0.4,0.1
		l-0.5,0.1c-0.1,0-0.2,0-0.3,0h-0.2c0,0,0-0.1,0-0.2v-0.2c0-0.1,0-0.2,0-0.3c0-0.1,0.1-0.2,0.1-0.4c0.1-0.3,0.2-0.5,0.3-0.8
		c0.1-0.2,0.1-0.5,0.2-0.8c0-0.1,0-0.2,0.1-0.3c0-0.1,0.1-0.3,0.1-0.5c0-0.2,0.1-0.3,0.2-0.4l0.1-0.3c0.1-0.1,0.1-0.2,0.1-0.3
		c0-0.1,0.1-0.2,0.1-0.3C185,84.9,185,84.8,185,84.8"/>
		<path class="st1" d="M186.4,71.1c0.1,0,0.1-0.1,0.2-0.2c0.1,0,0.1-0.1,0.2-0.1c0.1,0,0.1-0.1,0.1-0.1c0,0,0.1-0.1,0.1-0.1
		c0-0.1,0.1-0.1,0.2-0.2l0,0c0,0,0.1-0.1,0.1-0.1h0.1v0h0.1l0.1-0.1l0.2-0.1c0.1-0.1,0.2-0.1,0.3-0.2c0,0,0.1,0,0.1-0.1l0.2,0
		c0,0,0.1,0,0.1,0c0,0,0.1,0,0.1,0h0.1c0,0,0.1-0.1,0.1-0.1h0.1h0.1c0.1,0,0.2-0.1,0.3-0.1h0.2c0.1,0,0.2,0,0.2-0.1c0,0,0.1,0,0.1,0
		h0.1h0.2h1c0.1,0,0.1,0,0.2,0c0.1,0,0.2,0.1,0.3,0.1c0.1,0.1,0.2,0.2,0.4,0.2c0.1,0,0.1,0,0.2,0.1l0.1,0.1c0,0,0.1,0,0.1,0.1
		l0.1,0.1c0.1,0,0.1,0.1,0.2,0.1c0.1,0,0.1,0.1,0.2,0.1c0.1,0.1,0.2,0.2,0.2,0.2c0.1,0.1,0.1,0.1,0.2,0.2l0.1,0.1l0.1,0.1
		c0,0,0.1,0.1,0.1,0.1l0.1,0.1c0.1,0.1,0.2,0.2,0.3,0.2c0.1,0.1,0.2,0.1,0.3,0.2c0.1,0.1,0.3,0.3,0.4,0.4l0.2,0.2l0.2,0.2
		c0,0,0.1,0.1,0.1,0.1c0,0,0,0.1,0.1,0.1c0,0.1,0.1,0.1,0.1,0.2c0,0.1,0,0.1,0.1,0.2c0,0.1,0,0.1,0.1,0.2c0,0.1,0,0.1,0.1,0.2
		c0,0,0,0.1,0,0.1c0,0.1,0,0.1,0,0.2c0,0.1,0.1,0.2,0.1,0.3c0,0.1,0,0.2,0.1,0.3c0,0.1,0.1,0.3,0.1,0.4c0,0.1,0,0.1,0.1,0.2
		c0,0.1,0,0.2,0,0.3c0,0.1,0,0.2,0,0.3c0,0.1,0,0.2,0,0.3c0,0.2,0,0.4,0,0.6c0,0,0,0.1,0,0.1c0,0,0,0,0,0.1c0,0,0,0.1,0,0.1v1.1
		c0,0.1,0,0.3,0,0.4c0,0.1,0,0.2-0.1,0.3c0,0.1-0.1,0-0.2,0c-0.1-0.1-0.2-0.2-0.3-0.3c0-0.2-0.1-0.3-0.2-0.5c0-0.1-0.1-0.1-0.1-0.2
		c-0.1-0.1-0.1-0.2-0.2-0.2c-0.1-0.1-0.2-0.3-0.3-0.4s-0.2-0.3-0.4-0.5c-0.1-0.1-0.1-0.1-0.2-0.2l-0.1-0.1l-0.1-0.1l-0.2-0.2
		c-0.2-0.2-0.4-0.4-0.6-0.6c-0.2-0.2-0.1-0.1-0.2-0.2l-0.1-0.1c-0.1-0.1-0.2-0.1-0.4-0.2c-0.2-0.1-0.3-0.2-0.5-0.3H191
		c-0.2,0-0.3,0-0.5,0c-0.2,0-0.3,0-0.5-0.1c-0.2,0-0.4,0-0.6,0c-0.1,0-0.2,0-0.2,0c-0.1,0-0.2,0.1-0.3,0.1c-0.1,0-0.2,0.1-0.3,0.1
		c-0.1,0.1-0.3,0.1-0.4,0.2l-0.4,0.3c-0.2,0.1-0.4,0.1-0.6,0.3c-0.1,0-0.1,0.1-0.2,0.1l-0.4,0.2c-0.2,0.1-0.3,0.2-0.5,0.3
		c0,0-0.1,0.1-0.1,0.1h-0.1h-0.1c0,0,0,0,0-0.1c0,0,0-0.1,0-0.1v-2c0-0.3,0-0.6,0.1-0.8c0-0.1,0-0.3,0-0.5c0-0.1,0-0.2,0.1-0.3
		c0-0.1,0-0.2,0-0.2v-0.2c0-0.1,0-0.2,0-0.3c0-0.1,0.1-0.1,0.1-0.1s0-0.1,0.1-0.1c0.1,0,0,0.1,0,0.1"/>
		<ellipse id="_coffee" class="st0" cx="163.2" cy="75.6" rx="22.9" ry="10.6"/>
		<polygon class="st1" points="140.3,71.1 142.2,74.1 146.2,77 152,79.1 158.3,80.2 165,80.4 172.3,79.6 178.6,77.7 182.9,75.3
		185.6,72.3 186.1,70.7 186.1,74.2 185.6,80.5 184.8,84.6 183,90.4 181.5,93.4 180,95 176.7,97.5 171.8,100.2 165.7,101.6
		159.7,101.5 153.3,100.1 149.8,98 146.4,95.3 144.4,92.3 144,91.1 142,85.8 140.7,79.6 140.3,74.6 	"/>
		<path class="st2" d="M163.2,81.1c-13.2,0-23.6-5-23.6-11.3s10.3-11.3,23.6-11.3c13.2,0,23.6,5,23.6,11.3S176.4,81.1,163.2,81.1z
		 M163.2,59.9c-12,0-22.2,4.5-22.2,9.9s10.2,9.9,22.2,9.9s22.2-4.5,22.2-9.9S175.2,59.9,163.2,59.9z"/>
		<path class="st2" d="M144.4,93.2c-0.3,0-0.5-0.1-0.6-0.4c-4.8-9.1-4.2-22.5-4.1-23.1c0.1-0.4,0.4-0.6,0.8-0.6
		c0.3,0.1,0.6,0.3,0.6,0.7c0,0.1-0.7,13.6,4,22.3c0.2,0.3,0.1,0.8-0.3,0.9c0,0,0,0,0,0C144.6,93.2,144.5,93.2,144.4,93.2z"/>
		<g id="_smoke">
		<path class="st1" d="M163.5,74.4c-0.4,0-0.7-0.3-0.7-0.7c0-0.3,0.2-0.5,0.4-0.6c1.1-0.4,2-1.2,2.4-2.2c0.5-1.8-1.3-3.7-2.5-4.5
			c-0.6-0.5-1.4-0.7-2.1-0.8h-0.7c-0.4,0-0.7-0.3-0.7-0.7c0-0.3,0.2-0.6,0.5-0.7c5.9-1.2,10.3-6.8,9.8-12.4c-0.2-2.6-1.7-4.9-4-6.2
			c-1.4-0.7-3-0.5-4.2,0.4c-0.8,0.6-0.7,1.6-0.4,3c0.2,0.9,0.2,1.9,0,2.9c0,0,0,0.1,0,0.1c-0.9,1.6-2.7,2.4-4.5,1.9
			c-1.7-0.2-3.3-1.2-4.3-2.6c-1.2-1.9-1.7-4.1-1.3-6.3c1.7-7.6,9-10.5,15.4-10.1c0.3,0.1,0.7,0.1,1,0c0,0,0-0.1,0-0.1
			c-0.8-2.3-2.3-4.3-4.3-5.7c-2.9-2.2-6.8-2.6-10.1-1.2c-3.2,1.1-5.6,3.9-6.3,7.2c-0.1,0.4-0.4,0.6-0.8,0.6c0,0,0,0,0,0
			c-0.4-0.1-0.6-0.4-0.6-0.8c0,0,0,0,0,0c0.7-3.8,3.5-7,7.2-8.3c3.8-1.6,8.2-1,11.5,1.4c2.2,1.6,3.9,3.8,4.8,6.4
			c0.2,0.5,0.1,1-0.2,1.4c-0.6,0.5-1.5,0.7-2.3,0.5c-5.8-0.4-12.4,2.2-13.9,9c-0.4,1.8,0,3.7,1,5.2c0.8,1.1,2,1.9,3.4,2
			c1.1,0.3,2.4-0.2,3-1.1c0.1-0.7,0.1-1.5-0.1-2.2c-0.2-1.4-0.5-3.2,0.9-4.3l0,0c1.6-1.2,3.8-1.4,5.6-0.5c2.7,1.5,4.6,4.2,4.8,7.3
			c0.5,5.4-3,10.7-8.2,13c0.3,0.1,0.5,0.3,0.8,0.5c2,1.3,3.8,3.7,3.1,6.1c-0.5,1.5-1.8,2.7-3.3,3.2
			C163.7,74.4,163.6,74.4,163.5,74.4z"/>
			<path class="st1" d="M164.8,69.9c-0.9,0-1.9-0.1-2.8-0.2c-0.6-0.1-1.2-0.2-1.8-0.3c-0.4-0.1-0.6-0.5-0.5-0.8
			c0.1-0.4,0.5-0.6,0.8-0.5c0.6,0.1,1.2,0.2,1.7,0.3c3.8,0.6,9.1,0.2,12.7-4.8c3-4.1,4.1-10.2,2.8-16c-0.8-3.3-2-5.7-3.7-7.2
			c-1.7-1.6-4.1-2.3-6.4-2.1c-2,0.4-3.7,1.9-4.3,3.9c-0.8,2.2-0.7,5.4,0.9,6.7c1.6,1.3,4.1,0.5,5.6-0.8c0.9-0.8,1.6-1.8,1.8-3
			c0.1-1.4-0.3-2.8-1-4c-0.1-0.2-0.1-0.5,0-0.7c0.1-0.2,0.3-0.3,0.6-0.4c1.4,0,2.8,0.8,4,2.5c3.2,4.6,3.8,13-0.4,17.7
			c-0.2,0.3-0.7,0.3-1,0.1c0,0,0,0,0,0c-0.3-0.3-0.3-0.7-0.1-1c0,0,0,0,0,0c3.6-4.1,3.2-11.8,0.3-16c-0.4-0.6-0.9-1.2-1.5-1.6
			c0.5,1.1,0.7,2.3,0.5,3.5c-0.3,1.5-1.1,2.9-2.3,3.9c-2,1.8-5.3,2.6-7.4,0.9c-2.1-1.7-2.3-5.6-1.3-8.3c0.8-2.5,2.8-4.3,5.4-4.8
			c2.7-0.3,5.4,0.6,7.5,2.4c1.9,1.7,3.3,4.3,4.2,8c1.4,6.1,0.3,12.6-3,17.1C173.6,68,169.3,70.1,164.8,69.9z"/>
	</g>
		<path class="st2" d="M162.8,102.3c-13.2,0-18.7-9-19-9.4c-0.2-0.3-0.1-0.8,0.2-1c0,0,0,0,0.1,0c0.3-0.2,0.8-0.1,0.9,0.2
		c0,0,0,0,0,0c0.1,0.1,5.4,8.7,17.8,8.7c7.3,0.1,14.2-3.2,18.9-8.9c4.6-8.7,3.8-21.4,3.7-21.5c-0.1-0.4,0.2-0.7,0.6-0.8
		c0.4-0.1,0.7,0.2,0.8,0.6c0,0,0,0.1,0,0.1c0,0.5,0.9,13.2-3.9,22.3v0.1C178,98.9,170.6,102.4,162.8,102.3z"/>
		<path class="st2" d="M183.5,90.5h-0.1c-0.4,0-0.7-0.3-0.7-0.7c0-0.4,0.3-0.7,0.7-0.7l0,0c1.4,0,2.7-0.3,4-0.7
		c1.7-0.4,3.4-1.2,4.8-2.2c1-0.9,1.8-2.1,2.2-3.4c0.5-1.2,0.7-2.4,0.5-3.7c-0.3-1.4-1.1-2.6-2.3-3.4c-0.8-0.8-2-1.1-3.1-1
		c-1.2,0.3-2.2,0.9-2.9,1.9c-0.3,0.3-0.7,0.3-1,0.1c-0.3-0.2-0.3-0.6-0.2-0.9c0.9-1.3,2.3-2.1,3.8-2.4c1.5-0.2,3,0.2,4.2,1.2
		c1.4,1,2.5,2.6,2.8,4.3c0.2,1.5,0,3-0.6,4.4c-0.5,1.5-1.4,2.9-2.6,4c-1.6,1.2-3.4,2-5.3,2.5C186.4,90.2,185,90.4,183.5,90.5z"/>
		<path class="st2" d="M185.3,85.5H185c-0.4,0-0.7-0.3-0.7-0.7c0,0,0,0,0,0c0-0.4,0.3-0.7,0.7-0.7c0.5,0.1,1,0,1.5-0.2l0.9-0.3
		c1.7-0.4,3.4-1.2,4.8-2.2c1.1-0.9,2.1-3.4,2.4-4.2c0.1-0.2,0.2-0.3,0.4-0.4c0-0.8,0-1.7-0.1-2.5c-0.3-1.4-1.1-2.6-2.3-3.4
		c-0.8-0.7-2-1.1-3.1-1c-1.2,0.3-2.2,0.9-2.9,1.9c-0.2,0.3-0.7,0.4-1,0.2c0,0,0,0,0,0c-0.3-0.2-0.4-0.6-0.2-1c0,0,0,0,0,0
		c0.9-1.3,2.3-2.1,3.8-2.4c1.5-0.2,3,0.2,4.2,1.2c1.4,1,2.5,2.6,2.8,4.3c0.1,1.2,0.2,2.3,0.1,3.5c0,1.3,0,2.1,0,2.5v0.2l0,0
		c0,0.4-0.1,0.5-0.3,0.6c-0.2,0.2-0.5,0.2-0.7,0.1c-0.3-0.1-0.4-0.4-0.4-0.7v-0.2c-0.4,1-1.1,1.9-1.9,2.6c-1.6,1.2-3.4,2-5.3,2.5
		l-0.8,0.2C186.4,85.4,185.9,85.5,185.3,85.5z"/>
</g>
	<g id="_book-with-pen">
	<g id="_book">
		<polygon class="st4" points="112.5,125 143.4,195.4 209,195.4 190.4,125 		"/>
		<path class="st2" d="M208.9,196.1h-65.5c-0.3,0-0.5-0.2-0.6-0.4l-30.9-70.4c-0.2-0.3,0-0.8,0.3-0.9c0.1,0,0.2-0.1,0.3-0.1h77.9
			c0.3,0,0.6,0.2,0.7,0.5l18.5,70.4c0.1,0.4-0.1,0.7-0.5,0.8C209,196.1,209,196.1,208.9,196.1L208.9,196.1z M143.9,194.7H208
			l-18.2-69h-76.3L143.9,194.7z"/>
		<polygon class="st4" points="65.9,125 77.8,195.4 143.3,195.4 112.4,125 		"/>
		<path class="st2" d="M143.3,196.1H77.8c-0.3,0-0.6-0.2-0.7-0.6l-11.9-70.4c-0.1-0.4,0.2-0.7,0.6-0.8c0,0,0.1,0,0.1,0h46.5
			c0.3,0,0.5,0.2,0.6,0.4l30.9,70.4c0.2,0.4,0,0.8-0.4,0.9C143.5,196.1,143.4,196.1,143.3,196.1L143.3,196.1z M78.3,194.7h63.9
			l-30.3-69H66.7L78.3,194.7z"/>
		<path class="st4" d="M128.7,125c0,0-26.4-13.5-56.1-1.3l11.5,68c0,0,28.1-9.5,59.2,3.7L128.7,125z"/>
		<path class="st2" d="M143.3,196.1c-0.1,0-0.2,0-0.3,0c-30.6-13-58.5-3.8-58.8-3.7c-0.2,0.1-0.4,0-0.6-0.1
			c-0.2-0.1-0.3-0.3-0.3-0.5l-11.5-67.9c-0.1-0.3,0.1-0.6,0.4-0.8c12.5-5.1,26.3-6.5,39.6-4c5.9,1,11.7,2.8,17.1,5.3
			c0.2,0.1,0.3,0.3,0.4,0.5l14.6,70.4c0.1,0.3,0,0.5-0.2,0.7C143.6,196.1,143.4,196.1,143.3,196.1z M108.2,187.7
			c11.7,0,23.3,2.2,34.1,6.5L128,125.4c-3-1.4-27.6-12.3-54.7-1.3l11.3,66.6C92.3,188.7,100.2,187.6,108.2,187.7z"/>
		<path class="st4" d="M128.7,125c0,0,31.9-16.2,56.2-1.3l18.1,68c0,0-28.8-10.7-59.7,3.7L128.7,125z"/>
		<path class="st2" d="M143.3,196.1c-0.1,0-0.2,0-0.3-0.1c-0.2-0.1-0.3-0.3-0.4-0.5L128,125.1c-0.1-0.3,0.1-0.6,0.4-0.8
			c6.1-2.9,12.5-5,19.2-6.3c10.2-2,25-2.8,37.7,5.1c0.2,0.1,0.3,0.2,0.3,0.4l18.1,67.9c0.1,0.4-0.1,0.7-0.5,0.8c-0.1,0-0.3,0-0.4,0
			c-0.3-0.1-29-10.4-59.2,3.7C143.5,196.1,143.4,196.1,143.3,196.1z M129.5,125.4l14.3,69c26.9-12.2,52.4-5.6,58.2-3.8l-17.7-66.4
			C162.2,110.8,133.5,123.5,129.5,125.4L129.5,125.4z"/>
		<path class="st1" d="M128.7,125c0,0-24.1-18.7-53.7-6.4l11.5,67.9c0,0,28-9.3,56.9,8.9L128.7,125z"/>
		<path class="st2" d="M143.3,196.1c-0.1,0-0.3,0-0.4-0.1c-28.2-17.8-56-8.9-56.3-8.8c-0.2,0.1-0.4,0-0.6-0.1
			c-0.2-0.1-0.3-0.3-0.3-0.5l-11.5-67.9c-0.1-0.3,0.1-0.6,0.4-0.8c12.2-5.1,25.9-5.6,38.5-1.4c5.7,1.8,11.1,4.4,16,7.9
			c0.1,0.1,0.2,0.2,0.3,0.4l14.6,70.4c0.1,0.3,0,0.6-0.3,0.7C143.6,196,143.4,196.1,143.3,196.1z M104.4,183.4
			c13.3,0,26.4,3.6,37.9,10.5L128,125.4c-4.7-3.3-9.9-5.8-15.4-7.6c-12.1-4-25.2-3.6-36.9,1.2l11.2,66.6c5.6-1.5,11.3-2.2,17.1-2.2
			L104.4,183.4z"/>
		<path class="st1" d="M128.7,125c0,0,27.9-23.4,52.2-8.4l18.1,67.9c0,0-31-5.4-55.7,10.9L128.7,125z"/>
		<path class="st2" d="M143.3,196.1c-0.1,0-0.2,0-0.3,0c-0.2-0.1-0.4-0.3-0.4-0.5L128,125.2c0-0.3,0-0.5,0.2-0.7
			c5.2-4.1,11-7.5,17.2-9.9c13.3-5.3,25.7-4.8,35.8,1.4c0.2,0.1,0.3,0.2,0.3,0.4l18.1,67.9c0.1,0.4-0.1,0.8-0.5,0.9
			c-0.1,0-0.2,0-0.3,0c-0.3,0-31-5.2-55.2,10.8C143.5,196.1,143.4,196.1,143.3,196.1z M129.4,125.2l14.3,69
			c21.9-14,48.7-11.4,54.3-10.6L180.2,117c-12.2-7.4-25.4-4.7-34.4-1.2C140,118.2,134.5,121.3,129.4,125.2L129.4,125.2z"/>
		<path class="st2" d="M125,128.7c-0.1,0-0.3,0-0.4-0.1c-20.1-14.1-43.5-6.1-43.7-6c-0.3,0.2-0.8,0-0.9-0.3c-0.2-0.3,0-0.8,0.3-0.9
			c0,0,0.1,0,0.1-0.1c0.2-0.1,24.3-8.3,45,6.2c0.3,0.2,0.4,0.6,0.2,1c0,0,0,0,0,0C125.4,128.6,125.2,128.7,125,128.7z"/>
		<path class="st2" d="M126.2,134c-0.1,0-0.3,0-0.4-0.1c-20.1-14.1-43.5-6.1-43.7-6c-0.4,0.1-0.8-0.1-0.9-0.4
			c-0.1-0.4,0.1-0.8,0.4-0.9c0.2-0.1,24.3-8.3,45,6.2c0.3,0.2,0.4,0.6,0.2,0.9c0,0,0,0,0,0.1C126.7,133.9,126.4,134,126.2,134z"/>
		<path class="st2" d="M127.4,139.3c-0.1,0-0.3,0-0.4-0.1c-20.1-14.1-43.5-6.1-43.7-6c-0.4,0.1-0.8-0.1-0.9-0.4
			c-0.1-0.4,0.1-0.8,0.4-0.9c0,0,0,0,0,0c0.2-0.1,24.3-8.3,45,6.2c0.3,0.2,0.4,0.7,0.2,1c0,0,0,0,0,0
			C127.9,139.2,127.7,139.3,127.4,139.3z"/>
		<path class="st2" d="M128.7,144.7c-0.1,0-0.3,0-0.4-0.1c-20.1-14.1-43.5-6.1-43.7-6c-0.4,0.1-0.8-0.1-0.9-0.4
			c-0.1-0.4,0.1-0.8,0.4-0.9c0,0,0,0,0,0c0.2-0.1,24.3-8.3,45,6.2c0.3,0.2,0.4,0.7,0.2,1C129.1,144.6,128.9,144.7,128.7,144.7
			L128.7,144.7z"/>
		<path class="st2" d="M129.6,150c-0.1,0-0.3,0-0.4-0.1c-20.1-14.1-43.5-6.1-43.7-6c-0.4,0.1-0.8-0.1-0.9-0.4
			c-0.1-0.4,0.1-0.8,0.4-0.9c0,0,0,0,0,0c0.2-0.1,24.3-8.3,45,6.2c0.3,0.2,0.4,0.7,0.2,1C130.1,149.9,129.8,150,129.6,150L129.6,150
			z"/>
		<path class="st2" d="M130.7,155.3c-0.1,0-0.3,0-0.4-0.1c-20.1-14.1-43.5-6.1-43.7-6c-0.4,0.1-0.8-0.1-0.9-0.4
			c-0.1-0.4,0.1-0.8,0.4-0.9c0,0,0,0,0,0c0.2-0.1,24.3-8.3,45,6.2c0.3,0.2,0.4,0.6,0.2,0.9c0,0,0,0,0,0.1
			C131.1,155.2,130.9,155.3,130.7,155.3z"/>
		<path class="st2" d="M131.8,160.6c-0.1,0-0.3,0-0.4-0.1c-20.1-14.1-43.5-6.1-43.7-6c-0.4,0.1-0.8-0.1-0.9-0.4
			c-0.1-0.4,0.1-0.8,0.4-0.9c0.2-0.1,24.3-8.3,45,6.2c0.3,0.2,0.4,0.6,0.2,1c0,0,0,0,0,0C132.3,160.5,132,160.6,131.8,160.6z"/>
		<path class="st2" d="M88.8,159.8c-0.4,0-0.7-0.3-0.7-0.7c0-0.3,0.2-0.5,0.4-0.7c5.4-2.1,11.2-2.3,16.3-2.4c0.4,0,0.7,0.3,0.7,0.7
			c0,0,0,0,0,0c0,0.4-0.3,0.7-0.7,0.7c-5,0-10.7,0.3-15.8,2.3C89,159.8,88.9,159.8,88.8,159.8z"/>
	</g>
		<g id="_pen">
		<path class="st2" d="M144.6,179.9c-0.4,0-0.6-0.3-0.7-0.6l-3.1-23.5c-0.2-1.4,0.8-2.7,2.2-2.9c0,0,0,0,0,0
			c1.4-0.2,2.7,0.8,2.9,2.2l3.1,23.5c0,0.2,0,0.4-0.1,0.5c-0.1,0.1-0.3,0.2-0.5,0.3L144.6,179.9L144.6,179.9z M143.4,154.3h-0.2
			c-0.6,0.1-1.1,0.7-1,1.3l3,22.8l2.3-0.3l-3-22.8C144.5,154.7,144,154.3,143.4,154.3L143.4,154.3z"/>
			<path class="st5" d="M143.9,142.6l2.2,16.8l-4.3,0.6l-2.2-16.8c-0.2-1.2,0.7-2.3,1.9-2.5l0,0C142.7,140.6,143.7,141.4,143.9,142.6
			z"/>
			<path class="st2" d="M141.8,160.6c-0.3,0-0.6-0.3-0.7-0.6l-2.2-16.8c-0.1-0.8,0.1-1.5,0.6-2.1c1-1.2,2.7-1.5,4-0.5
			c0.6,0.5,1,1.2,1.1,1.9l2.2,16.8c0,0.2,0,0.4-0.1,0.5c-0.1,0.1-0.3,0.2-0.5,0.3L141.8,160.6L141.8,160.6z M141.8,141.4h-0.2
			c-0.4,0.1-0.8,0.3-1,0.6c-0.2,0.3-0.4,0.7-0.3,1.1l2.1,16.1l3-0.4l-2.2-16.1l0,0C143.1,141.9,142.5,141.4,141.8,141.4L141.8,141.4
			z"/>
			<path class="st2" d="M147.9,156.1c-0.4,0-0.7-0.3-0.7-0.6l-1.4-10.5c0,0,0-0.1,0-0.1l0,0c0-0.3-0.1-0.7-0.4-0.9
			c-0.4-0.3-0.9-0.4-1.3-0.3c-0.4,0-0.7-0.3-0.7-0.7c0-0.3,0.2-0.6,0.5-0.7c0.9-0.2,1.8,0,2.4,0.6c0.5,0.5,0.8,1.2,0.8,1.9l1.4,10.4
			c0,0.4-0.2,0.7-0.6,0.8L147.9,156.1z"/>
			<path class="st2" d="M147,183.4c-0.2,0-0.5-0.1-0.6-0.3l-2.3-3.5c-0.2-0.3-0.2-0.7,0.1-1c0.3-0.2,0.7-0.2,1,0.1
			c0,0,0.1,0.1,0.1,0.1l1.6,2.3l0.9-2.7c0.1-0.4,0.5-0.6,0.9-0.4c0.4,0.1,0.6,0.5,0.4,0.9l0,0l-1.4,4
			C147.6,183.2,147.3,183.4,147,183.4L147,183.4z"/>
	</g>
</g>
	<g id="_pencil-case">
		<ellipse class="_shadow st3" cx="99" cy="99.8" rx="25.5" ry="6.6"/>
		<ellipse class="st1" cx="64.8" cy="89.2" rx="12.3" ry="17.5"/>
		<path class="st2" d="M64.8,107.5c-7.2,0-13-8.2-13-18.2S57.6,71,64.8,71s13,8.2,13,18.2S71.9,107.5,64.8,107.5z M64.8,72.5
		c-6.4,0-11.6,7.5-11.6,16.8s5.2,16.8,11.6,16.8c6.4,0,11.6-7.5,11.6-16.8S71.2,72.4,64.8,72.5L64.8,72.5z"/>
		<ellipse class="st1" cx="117.8" cy="76.9" rx="12.3" ry="17.5"/>
		<path class="st2" d="M117.8,95.1c-7.2,0-13-8.2-13-18.2s5.8-18.2,13-18.2s13,8.2,13,18.2S124.9,95.1,117.8,95.1z M117.8,60.1
		c-6.4,0-11.6,7.5-11.6,16.8s5.2,16.8,11.6,16.8s11.6-7.5,11.6-16.8S124.2,60.1,117.8,60.1z"/>
		<path class="st2" d="M69.7,107.5c-2.3,0-3.5-0.1-3.6-0.1c-0.4-0.1-0.6-0.4-0.6-0.8c0.1-0.3,0.4-0.6,0.7-0.6
		c0.2,0,23.1,2.1,53.2-12.1c0.3-0.2,0.8,0,0.9,0.3c0.2,0.3,0,0.8-0.3,0.9c0,0,0,0,0,0C96.6,106.2,77.4,107.5,69.7,107.5z"/>
		<path class="st1" d="M63.2,71.7c0,0,48.2,16.1,54.6-12.3C117.8,59.4,78.8,58.6,63.2,71.7z"/>
		<path class="st2" d="M90.4,77C77,77,63.8,72.6,63,72.4c-0.2-0.1-0.4-0.3-0.5-0.5c-0.1-0.2,0-0.5,0.2-0.7
		c15.6-13.1,53.4-12.5,55-12.5c0.2,0,0.4,0.1,0.5,0.3c0.1,0.2,0.2,0.4,0.1,0.6c-1.1,5.7-4.7,10.7-9.8,13.5C103.4,76,96.9,77,90.4,77
		z M64.7,71.4c5.7,1.7,29.6,8.1,43.3,0.4c4.5-2.5,7.7-6.7,8.9-11.7h-0.2C110.6,60.1,79,60.6,64.7,71.4z"/>
		<path class="st1"
			  d="M82.8,51.3v40.8l40.8-40.8H82.8z M88.2,77.1V60.6l8.3,8.3L88.2,77.1z M92,56.7h16.5l-8.3,8.3L92,56.7z"/>
		<path class="st2" d="M82.8,92.8c-0.1,0-0.2,0-0.3-0.1c-0.3-0.1-0.4-0.4-0.4-0.6V51.3c0-0.4,0.3-0.7,0.7-0.7c0,0,0,0,0,0h40.8
		c0.4,0,0.7,0.3,0.7,0.7c0,0.2-0.1,0.4-0.2,0.5L83.3,92.6C83.2,92.7,83,92.8,82.8,92.8z M83.5,52v38.4L121.9,52H83.5z M88.2,77.8
		c-0.1,0-0.2,0-0.3-0.1c-0.3-0.1-0.4-0.4-0.4-0.6V60.6c0-0.4,0.3-0.7,0.7-0.7c0.2,0,0.4,0.1,0.5,0.2l8.3,8.3c0.3,0.3,0.3,0.7,0,1
		c0,0,0,0,0,0l-8.3,8.3C88.5,77.7,88.4,77.8,88.2,77.8z M88.9,62.3v13.1l6.6-6.6L88.9,62.3z M100.3,65.7c-0.2,0-0.4-0.1-0.5-0.2
		l-8.2-8.3c-0.3-0.3-0.3-0.7,0-1c0.1-0.1,0.3-0.2,0.5-0.2h16.5c0.4,0,0.7,0.3,0.7,0.7c0,0.2-0.1,0.4-0.2,0.5l-8.3,8.3
		C100.7,65.6,100.5,65.7,100.3,65.7z M93.7,57.4l6.6,6.6l6.6-6.6H93.7z"/>
		<path class="st2" d="M89.1,90.2c-0.7,0-1.5-0.3-2-0.8L66.3,68.6l0,0c-1.1-1.1-1.1-2.9,0-4s2.9-1.1,4,0l20.8,20.8
		c1.1,1.1,1.1,2.9,0,4C90.6,89.9,89.9,90.2,89.1,90.2L89.1,90.2z M67.3,67.6l20.8,20.8c0.6,0.5,1.4,0.5,2,0c0.3-0.3,0.4-0.6,0.4-1
		c0-0.4-0.1-0.7-0.4-1L69.3,65.6c-0.6-0.5-1.5-0.4-2,0.2C66.9,66.3,66.9,67.1,67.3,67.6L67.3,67.6z"/>
		<path class="st5"
			  d="M59.9,54.6l13.6,13.6l-3.5,3.5L56.4,58.2c-1-1-1-2.6,0-3.5l0,0C57.3,53.7,58.9,53.7,59.9,54.6z"/>
		<path class="st2" d="M69.9,72.4c-0.2,0-0.4-0.1-0.5-0.2L55.9,58.7c-1.2-1.3-1.2-3.3,0.1-4.5c1.2-1.2,3.2-1.2,4.4,0L74,67.7
		c0.1,0.1,0.2,0.3,0.2,0.5c0,0.2-0.1,0.4-0.2,0.5l-3.5,3.5C70.3,72.3,70.1,72.4,69.9,72.4z M58.1,54.6c-0.5,0-0.9,0.2-1.3,0.5
		c-0.7,0.7-0.7,1.8,0,2.5c0,0,0,0,0,0l13.1,13.1l2.5-2.5L59.4,55.1l0,0C59.1,54.8,58.6,54.6,58.1,54.6z"/>
		<path class="st2" d="M72.3,64.2c-0.2,0-0.4-0.1-0.5-0.2l-8.5-8.5l-0.1-0.1c-0.3-0.3-0.6-0.5-1.1-0.6c-0.6,0-1.1,0.3-1.4,0.7
		c-0.3,0.3-0.7,0.3-1,0c-0.3-0.3-0.3-0.7,0-1c0.6-0.7,1.6-1.2,2.5-1.1c0.8,0.1,1.5,0.5,2,1.1l8.5,8.5c0.3,0.3,0.3,0.7,0,1
		C72.6,64.1,72.4,64.1,72.3,64.2L72.3,64.2z"/>
		<polygon class="st5" points="62.3,72 60.8,78.2 65.4,78.2 63.8,72 	"/>
		<path class="st2" d="M65.4,78.9h-4.6c-0.2,0-0.4-0.1-0.5-0.3c-0.1-0.2-0.2-0.4-0.1-0.6l1.5-6.2c0.1-0.3,0.4-0.5,0.7-0.5h1.5
		c0.3,0,0.6,0.2,0.7,0.5L66,78c0.1,0.2,0,0.4-0.1,0.6C65.8,78.8,65.6,78.9,65.4,78.9z M61.7,77.5h2.8l-1.2-4.8h-0.5L61.7,77.5z"/>
		<polyline class="st5" points="76.4,50.8 73.3,47.2 72.3,51.9 	"/>
		<path class="st2" d="M72.3,52.6h-0.1c-0.4-0.1-0.6-0.4-0.6-0.8c0,0,0,0,0-0.1l1-4.7c0.1-0.4,0.4-0.6,0.8-0.5c0.2,0,0.3,0.1,0.4,0.2
		l3.1,3.6c0.3,0.3,0.2,0.7-0.1,1c0,0,0,0,0,0c-0.3,0.3-0.7,0.2-1-0.1l-2.2-2.6L73,52C72.9,52.3,72.6,52.6,72.3,52.6z"/>
		<rect x="77.1" y="50.7" transform="matrix(0.9693 -0.246 0.246 0.9693 -14.94 21.6662)" class="st5" width="4.2"
			  height="39.8"/>
		<path class="st2" d="M82.1,91.2c-0.1,0-0.2,0-0.3-0.1c-0.2-0.1-0.3-0.2-0.3-0.4L71.6,52c-0.1-0.4,0.1-0.7,0.5-0.8c0,0,0,0,0,0
		l4.1-1c0.2,0,0.4,0,0.5,0.1c0.2,0.1,0.3,0.2,0.3,0.4l9.8,38.6c0.1,0.4-0.1,0.8-0.5,0.8l-4.1,1L82.1,91.2z M73.1,52.4l9.5,37.3
		l2.7-0.7l-9.5-37.2L73.1,52.4z"/>
		<polygon class="st4" points="124.9,90.7 127.3,88.1 129,84.1 130.1,77.8 129.5,71.6 128.1,67.3 124.1,61.9 120.5,59.8 118.1,59.4
		117.5,60.4 115.2,65.8 111.5,70.2 105.5,73.8 99.6,75.5 91.2,76.3 81.7,75.7 71.5,73.9 74.8,79.1 76.8,85.5 77,91.1 75.4,98.1
		72.6,102.8 69.9,105.2 67,106.9 78.5,106.3 94.7,103.4 105.5,100.2 120,94.4 123.6,92.3 	"/>
		<path class="st2" d="M90.5,76.9c-13.4,0-26.7-4.3-27.5-4.6c-0.4-0.1-0.6-0.5-0.4-0.9c0.1-0.4,0.5-0.6,0.9-0.4
		c0.3,0.1,29.3,9.5,44.8,0.7c4.7-2.6,7.9-7.2,8.9-12.5c0.1-0.4,0.5-0.6,0.8-0.5c0.4,0.1,0.6,0.5,0.5,0.8c-1.1,5.7-4.6,10.6-9.6,13.4
		C103.6,75.9,97,76.9,90.5,76.9z"/>
		<path class="st2" d="M69.1,107.5c-1.1,0-2.2,0-3.3-0.1c-0.4,0-0.7-0.3-0.7-0.7c0-0.3,0.3-0.6,0.6-0.7c0.3,0,8.1-1.5,10.2-12.8
		c1.2-6.8-0.8-13.7-5.5-18.8c-0.3-0.3-0.3-0.7,0-1c0.3-0.3,0.7-0.3,1,0c5.1,5.4,7.3,12.8,5.9,20.1c-1.4,7.4-5.1,10.9-7.9,12.5
		c29.3-0.1,52.9-13.4,53.2-13.6c0.2-0.1,8.4-4.7,6.8-18.3c-1.5-13.6-11.4-14.3-11.5-14.4c-0.4,0-0.7-0.3-0.7-0.7c0,0,0,0,0,0
		c0-0.4,0.4-0.7,0.7-0.6c0.1,0,11.1,0.9,12.8,15.6s-7.2,19.5-7.5,19.7C122.7,93.9,98.8,107.5,69.1,107.5z"/>
</g>
	<g id="_phone">
	<polygon class="st4" points="202.9,125 216.3,177.9 248.3,177.9 234.8,125 	"/>
		<path class="st2" d="M248.3,178.6h-31.9c-0.3,0-0.6-0.2-0.7-0.5l-13.4-52.9c-0.1-0.2,0-0.4,0.1-0.6c0.1-0.2,0.3-0.3,0.5-0.3h31.9
		c0.3,0,0.6,0.2,0.7,0.5l13.4,52.9c0.1,0.4-0.1,0.8-0.5,0.8C248.4,178.6,248.3,178.6,248.3,178.6L248.3,178.6z M216.9,177.2h30.5
		l-13.1-51.5h-30.5L216.9,177.2z"/>
		<polygon class="st1" points="206.4,129.1 217.8,171.9 244.7,171.9 233.4,129.1 	"/>
		<path class="st2" d="M244.7,172.6h-27c-0.3,0-0.6-0.2-0.7-0.5l-11.4-42.8c-0.1-0.2,0-0.4,0.1-0.6c0.1-0.2,0.3-0.3,0.6-0.3h27
		c0.3,0,0.6,0.2,0.7,0.5l11.4,42.8c0.1,0.2,0,0.4-0.1,0.6C245.2,172.5,245,172.6,244.7,172.6z M218.3,171.2h25.5l-11-41.5h-25.5
		L218.3,171.2z"/>
		<path class="st2" d="M235,174.8h-5.7c-0.4,0-0.7-0.3-0.7-0.7c0-0.4,0.3-0.7,0.7-0.7c0,0,0,0,0,0h5.7c0.4,0,0.7,0.3,0.7,0.7
		C235.7,174.5,235.4,174.8,235,174.8z"/>

		<radialGradient id="_phone-light-radius_1_" cx="292.738" cy="-150.659" r="116.02" fx="220.7496" fy="-59.6743"
						gradientTransform="matrix(0.99 -9.999925e-03 -9.999925e-03 -0.95 -24.3219 -25.5242)"
						gradientUnits="userSpaceOnUse">
		<stop offset="0" style="stop-color:#FFE252"/>
			<stop offset="0.67" style="stop-color:#FFE252;stop-opacity:0"/>
	</radialGradient>
		<path id="_phone-light-radius" class="st6"
			  d="M206.5,129l-0.1-66.2c0,0,121.2-28.9,109.7,109.1l-71.3,0.2l-27.1-0.2L206.5,129z"/>
</g>
</svg>
